<svg width="15" height="15" viewBox="0 0 15 15" fill="none" xmlns="http://www.w3.org/2000/svg">
<path fill-rule="evenodd" clip-rule="evenodd" d="M7.05039 3C7.73359 3 8.28789 3.5375 8.28789 4.2C8.28789 4.8625 7.73359 5.4 7.05039 5.4C6.36719 5.4 5.81289 4.8625 5.81289 4.2C5.81289 3.5375 6.36719 3 7.05039 3ZM6.22539 7.4C6.22539 7.18 6.03977 7 5.81289 7V6.2H7.46289C7.68977 6.2 7.87539 6.38 7.87539 6.6V9.8C7.87539 10.02 8.06102 10.2 8.28789 10.2H8.70039V11H7.87539H6.22539H5.40039V10.2H5.81289C6.03977 10.2 6.22539 10.02 6.22539 9.8V7.4Z" fill="#252525"/>
<path fill-rule="evenodd" clip-rule="evenodd" d="M7 1C10.3134 1 13 3.68661 13 7C13 10.3134 10.3134 13 7 13C3.68661 13 1 10.3134 1 7C1 3.68661 3.68661 1 7 1ZM7 1.85714C9.84062 1.85714 12.1429 4.15938 12.1429 7C12.1429 9.84062 9.84062 12.1429 7 12.1429C4.15938 12.1429 1.85714 9.84062 1.85714 7C1.85714 4.15938 4.15938 1.85714 7 1.85714Z" fill="#252525"/>
</svg>
