<svg width="15" height="15" xmlns="http://www.w3.org/2000/svg">

 <g>
  <title>background</title>
  <rect fill="none" id="canvas_background" height="602" width="802" y="-1" x="-1"/>
 </g>
 <g>
  <title>Layer 1</title>
  <path id="svg_1" fill="#022525" d="m6.9375,1.93737c3.3134,0 6,2.11072 6,4.71429c0,1.22009 -0.5893,2.33036 -1.5562,3.16741c-0.1434,0.12455 -0.2317,0.27183 -0.2746,0.45673c-0.4272,1.8656 -1.99018,3.233 -4.16786,3.233c0.28527,-0.2853 0.47411,-0.6362 0.60134,-1.0192c0.08839,-0.2665 0.04955,-0.533 -0.1125,-0.7634c-0.16072,-0.229 -0.39911,-0.3562 -0.68036,-0.3643c-3.225,-0.079 -5.80982,-2.1589 -5.80982,-4.71158c0,-2.60357 2.68661,-4.71428 6,-4.71428l0,0.00133zm1.49866,10.41163c0.91072,-0.4018 1.58704,-1.1866 1.83344,-2.2634c0.0831,-0.36296 0.2679,-0.67099 0.5492,-0.9134c0.9897,-0.85715 1.5241,-2.09063 1.1316,-3.375c-0.6227,-2.03438 -3.05352,-3.00268 -5.01424,-3.00268c-1.96071,0 -4.39152,0.96696 -5.01428,3.00268c-0.17009,0.55714 -0.17009,1.15178 0,1.71026c0.60535,1.97813 2.93437,2.95314 4.84419,3.00004c0.55179,0.0134 1.04197,0.2759 1.36072,0.7272c0.23437,0.3321 0.34017,0.7232 0.30803,1.1143l0.00134,0z" clip-rule="evenodd" fill-rule="evenodd"/>
 </g>
</svg>