<svg width="15" height="15" viewBox="0 0 15 15" fill="none" xmlns="http://www.w3.org/2000/svg">
<path fill-rule="evenodd" clip-rule="evenodd" d="M7.5 6.09375C8.27637 6.09375 8.90625 6.72364 8.90625 7.50002C8.90625 8.27639 8.27637 8.90628 7.5 8.90628C6.72363 8.90628 6.09375 8.27639 6.09375 7.50002C6.09375 7.4004 6.104 7.30226 6.12451 7.20851C6.21973 7.24806 6.32373 7.27003 6.43359 7.27003C6.88037 7.27003 7.24219 6.90821 7.24219 6.46143C7.24219 6.34424 7.21729 6.23291 7.17188 6.13184C7.27734 6.10693 7.38721 6.09229 7.50146 6.09229L7.5 6.09375Z" fill="#252525"/>
<path fill-rule="evenodd" clip-rule="evenodd" d="M7.5 3.75C9.57129 3.75 11.25 5.42871 11.25 7.5C11.25 9.57129 9.57129 11.25 7.5 11.25C5.42871 11.25 3.75 9.57129 3.75 7.5C3.75 5.42871 5.42871 3.75 7.5 3.75ZM7.5 5.625C8.53564 5.625 9.375 6.46436 9.375 7.5C9.375 8.53564 8.53564 9.375 7.5 9.375C6.46436 9.375 5.625 8.53564 5.625 7.5C5.625 7.27881 5.66309 7.06494 5.73486 6.86865C5.66602 6.75 5.625 6.61084 5.625 6.46289C5.625 6.01611 5.98682 5.6543 6.43359 5.6543C6.57422 5.6543 6.70459 5.68945 6.82031 5.75244C7.03125 5.67041 7.26123 5.625 7.50146 5.625H7.5Z" fill="#252525"/>
<path fill-rule="evenodd" clip-rule="evenodd" d="M14.4346 7.94678C13.2012 10.7314 10.5601 12.6562 7.5 12.6562C4.43994 12.6562 1.79883 10.7314 0.56543 7.94678C0.436523 7.65381 0.436523 7.34473 0.56543 7.05176C1.79883 4.26709 4.43994 2.34229 7.5 2.34229C10.5601 2.34229 13.2012 4.26709 14.4346 7.05176C14.5635 7.34473 14.5635 7.65381 14.4346 7.94678ZM7.5 11.7188C9.81152 11.7188 11.8418 10.4092 13.0532 8.50781C13.4546 7.87793 13.4546 7.12061 13.0532 6.49219C11.8418 4.59082 9.81152 3.28125 7.5 3.28125C5.18848 3.28125 3.1582 4.59082 1.94678 6.49219C1.54541 7.12207 1.54541 7.87939 1.94678 8.50781C3.15527 10.4033 5.18262 11.7188 7.5 11.7188Z" fill="#252525"/>
</svg>
