<svg width="15" height="15" viewBox="0 0 15 15" fill="none" xmlns="http://www.w3.org/2000/svg">
<path fill-rule="evenodd" clip-rule="evenodd" d="M6.25005 7.37515L8.55513 5.07007C8.62837 4.99683 8.74731 4.99683 8.82056 5.07007L9.49263 5.74214C9.56587 5.81538 9.56587 5.93433 9.49263 6.00757L6.38306 9.11714C6.30981 9.19038 6.19087 9.19038 6.11763 9.11714L4.50806 7.50757C4.43481 7.43433 4.43481 7.31538 4.50806 7.24214L5.18013 6.57007C5.25337 6.49683 5.37231 6.49683 5.44556 6.57007L6.25064 7.37515H6.25005Z" fill="#252525"/>
<path fill-rule="evenodd" clip-rule="evenodd" d="M7 1C10.3134 1 13 3.68661 13 7C13 10.3134 10.3134 13 7 13C3.68661 13 1 10.3134 1 7C1 3.68661 3.68661 1 7 1ZM7 1.85714C9.84062 1.85714 12.1429 4.15938 12.1429 7C12.1429 9.84062 9.84062 12.1429 7 12.1429C4.15938 12.1429 1.85714 9.84062 1.85714 7C1.85714 4.15938 4.15938 1.85714 7 1.85714Z" fill="#252525"/>
</svg>
