<svg width="16" height="14" viewBox="0 0 16 14" fill="none" xmlns="http://www.w3.org/2000/svg">
<path fill-rule="evenodd" clip-rule="evenodd" d="M1.4375 11.375H2.375V2.625H1.4375V1.75H2.375V0.875H3.3125V1.75H12.6875V0.875H13.625V1.75H14.5625V2.625H13.625V11.375H14.5625V12.25H13.625V13.125H12.6875V12.25H3.3125V13.125H2.375V12.25H1.4375V11.375ZM3.3125 2.625V6.49004C3.08252 6.61855 2.84375 6.70605 2.84375 7C2.84375 7.29395 3.08252 7.38145 3.3125 7.50996V11.375H7.45361C7.59131 11.5896 7.68506 11.8125 8 11.8125C8.31494 11.8125 8.40869 11.5896 8.54639 11.375H12.6875V7.50996C12.9175 7.38145 13.1562 7.29395 13.1562 7C13.1562 6.70605 12.9175 6.61855 12.6875 6.49004V2.625H8.54639C8.40869 2.41035 8.31494 2.1875 8 2.1875C7.68506 2.1875 7.59131 2.41035 7.45361 2.625H3.3125Z" fill="#252525"/>
<path fill-rule="evenodd" clip-rule="evenodd" d="M12.6875 7L10.3438 5.6875V8.3125L12.6875 7Z" fill="#252525"/>
<path fill-rule="evenodd" clip-rule="evenodd" d="M8 11.375L9.40625 9.1875H6.59375L8 11.375Z" fill="#252525"/>
<path fill-rule="evenodd" clip-rule="evenodd" d="M3.3125 7L5.65625 5.6875V8.3125L3.3125 7Z" fill="#252525"/>
<path fill-rule="evenodd" clip-rule="evenodd" d="M8 2.625L9.40625 4.8125H6.59375L8 2.625Z" fill="#252525"/>
</svg>
