<svg width="15" height="15" viewBox="0 0 15 15" fill="none" xmlns="http://www.w3.org/2000/svg">
<path fill-rule="evenodd" clip-rule="evenodd" d="M1.875 1.875H13.125C13.6406 1.875 14.0625 2.29688 14.0625 2.8125V12.6562C14.0625 12.9141 13.8516 13.125 13.5938 13.125H1.40625C1.14844 13.125 0.9375 12.9141 0.9375 12.6562V2.8125C0.9375 2.29541 1.35938 1.875 1.875 1.875ZM1.875 4.6875H13.125V7.89111C13.355 8.02881 13.5938 8.12256 13.5938 8.4375C13.5938 8.75244 13.355 8.84619 13.125 8.98389V12.1875H1.875V8.98389C1.64502 8.84619 1.40625 8.75244 1.40625 8.4375C1.40625 8.12256 1.64502 8.02881 1.875 7.89111V4.6875Z" fill="#252525"/>
<path fill-rule="evenodd" clip-rule="evenodd" d="M1.875 8.4375L4.21875 7.03125V9.84375L1.875 8.4375Z" fill="#252525"/>
<path fill-rule="evenodd" clip-rule="evenodd" d="M13.125 8.4375L10.7812 7.03125V9.84375L13.125 8.4375Z" fill="#252525"/>
</svg>
