<svg width="41" height="36" viewBox="0 0 41 36" fill="none" xmlns="http://www.w3.org/2000/svg">
<path d="M24.2845 1.17285C18.6315 1.17285 14.7081 2.54446 10.1309 5.71329C8.48347 6.85382 6.89004 7.64326 5.15012 8.32711C4.8366 7.51291 4.01145 6.97127 3.09978 7.05543C1.99988 7.15696 1.19055 8.1309 1.29208 9.2308C1.32731 9.61247 1.37287 9.99337 1.42832 10.3732C1.25724 10.7978 1.23005 11.284 1.38624 11.7526C1.48375 12.0452 1.64293 12.301 1.84459 12.5096C3.34326 18.6736 7.28943 24.4179 11.7421 28.3918C15.7608 31.9784 20.7421 35.4075 26.9066 35.1949C27.0567 35.1897 27.2127 35.1851 27.3749 35.1802L27.376 35.1802L27.3913 35.1797C28.4053 35.1495 29.6483 35.1125 30.8405 34.894C32.2673 34.6325 33.8282 34.0816 35.113 32.8169C38.2697 29.7096 39.7177 25.0596 39.8363 21.0073C40.0074 15.1617 38.403 8.41562 33.7692 3.97486C30.9814 1.30324 27.0198 1.17285 24.2845 1.17285ZM14.4055 25.4075C10.5928 22.0048 7.32514 17.2473 5.92854 12.312C8.1165 11.4965 10.2155 10.5198 12.4077 9.00206C16.3783 6.25325 19.5177 5.17285 24.2845 5.17285C27.1561 5.17285 29.5085 5.43193 31.0016 6.86281C34.5253 10.2397 35.9902 15.6927 35.8381 20.8902C35.7403 24.2313 34.5287 27.7793 32.3069 29.9663C31.7948 30.4704 31.0927 30.7812 30.1195 30.9595C29.2505 31.1187 28.3317 31.1482 27.2865 31.1806L27.2851 31.1807C27.1159 31.1859 26.9435 31.1912 26.7687 31.1973C22.2296 31.3538 18.2617 28.849 14.4055 25.4075Z" fill="#D9544F" stroke="white" stroke-linecap="round" stroke-linejoin="round"/>
</svg>
