<svg width="15" height="15" xmlns="http://www.w3.org/2000/svg">
 <defs>
  <clipPath id="clip0">
   <rect id="svg_1" fill="white" height="14.9871" width="15"/>
  </clipPath>
 </defs>
 <g>
  <title>background</title>
  <rect fill="none" id="canvas_background" height="602" width="802" y="-1" x="-1"/>
 </g>
 <g>
  <title>Layer 1</title>
  <g id="svg_2" clip-path="url(#clip0)">
   <path id="svg_3" fill="#252525" d="m3.75,0.9375l9.375,0c0.5156,0 0.9375,0.42151 0.9375,0.93669l0,7.96188c0,0.25763 -0.2109,0.46833 -0.4687,0.46833l-0.9376,0l0,-0.93667l0.4688,0l0,-5.62015l-9.375,0l0,0.46834l-0.9375,0l0,-2.34173c0,-0.51664 0.42188,-0.93669 0.9375,-0.93669z" clip-rule="evenodd" fill-rule="evenodd"/>
   <path id="svg_4" fill="#252525" d="m12.1875,13.5822c0,0.2576 -0.2109,0.4683 -0.4687,0.4683l-10.31255,0c-0.25781,0 -0.46875,-0.2107 -0.46875,-0.4683l0,-7.96191c0,-0.51665 0.42188,-0.9367 0.9375,-0.9367l9.375,0c0.5156,0 0.9375,0.42152 0.9375,0.9367l0,7.96191zm-10.3125,-6.08853l9.375,0l0,5.62013l-9.375,0l0,-5.62013z" clip-rule="evenodd" fill-rule="evenodd"/>
  </g>
 </g>
</svg>