<svg width="30" height="30" viewBox="0 0 30 30" fill="none" xmlns="http://www.w3.org/2000/svg">
<path fill-rule="evenodd" clip-rule="evenodd" d="M15.0998 7C16.4662 7 17.5748 8.075 17.5748 9.4C17.5748 10.725 16.4662 11.8 15.0998 11.8C13.7334 11.8 12.6248 10.725 12.6248 9.4C12.6248 8.075 13.7334 7 15.0998 7ZM13.4498 15.8C13.4498 15.36 13.0786 15 12.6248 15V13.4H15.9248C16.3786 13.4 16.7498 13.76 16.7498 14.2V20.6C16.7498 21.04 17.1211 21.4 17.5748 21.4H18.3998V23H16.7498H13.4498H11.7998V21.4H12.6248C13.0786 21.4 13.4498 21.04 13.4498 20.6V15.8Z" fill="#D9544F"/>
<path fill-rule="evenodd" clip-rule="evenodd" d="M15 3C21.6268 3 27 8.37321 27 15C27 21.6268 21.6268 27 15 27C8.37321 27 3 21.6268 3 15C3 8.37321 8.37321 3 15 3ZM15 4.71429C20.6812 4.71429 25.2857 9.31875 25.2857 15C25.2857 20.6812 20.6812 25.2857 15 25.2857C9.31875 25.2857 4.71429 20.6812 4.71429 15C4.71429 9.31875 9.31875 4.71429 15 4.71429Z" fill="#D9544F"/>
</svg>
