<svg width="5" height="5" viewBox="0 0 5 5" fill="none" xmlns="http://www.w3.org/2000/svg">
<path fill-rule="evenodd" clip-rule="evenodd" d="M3.54551 0.231257L4.24043 0.926179C4.31309 0.998835 4.31309 1.11837 4.24043 1.19161L3.54551 1.88653C3.47285 1.95919 3.3832 1.99551 3.28008 1.9961L2.78848 2.0002C2.7498 2.00079 2.71641 1.97794 2.70176 1.94219C2.68711 1.90645 2.69473 1.86719 2.72227 1.84024L3.1248 1.4377H2.7498C2.33672 1.4377 1.9623 1.60645 1.69043 1.87833C1.41855 2.1502 1.2498 2.5252 1.2498 2.9377V4.2502H0.499805V2.9377C0.499805 2.31778 0.752344 1.75528 1.16016 1.34805C1.56738 0.940827 2.13047 0.687702 2.7498 0.687702H3.1248L2.72227 0.285163C2.69473 0.257624 2.68711 0.218952 2.70176 0.18321C2.71641 0.147468 2.7498 0.125788 2.78848 0.125202L3.28008 0.121101C3.3832 0.120515 3.47227 0.158015 3.54551 0.230671V0.231257Z" fill="#252525"/>
</svg>
