<svg width="15" height="15" viewBox="0 0 15 15" fill="none" xmlns="http://www.w3.org/2000/svg">
<path fill-rule="evenodd" clip-rule="evenodd" d="M8.86412 6.19468C8.13181 5.46237 8.13181 4.27534 8.86412 3.54303C9.59643 2.81072 10.7835 2.81072 11.5158 3.54303C12.2481 4.27534 12.2481 5.46237 11.5158 6.19468C10.7835 6.92699 9.59643 6.92699 8.86412 6.19468Z" fill="#252525"/>
<path fill-rule="evenodd" clip-rule="evenodd" d="M3.33626 8.78356L3.33626 11.2405C3.33626 11.4994 3.54756 11.7087 3.80548 11.7097L6.2624 11.7097C6.51928 11.7097 6.74197 11.6154 6.92531 11.4342L7.8016 10.5724C7.871 10.5051 7.88964 10.4056 7.85235 10.3165C7.81506 10.2275 7.7322 10.1715 7.63587 10.1726L6.21268 10.1726C7.20705 9.1782 8.19831 8.18072 9.19268 7.18635L7.87203 5.86571C6.87766 6.86008 5.88019 7.85134 4.88582 8.84571L4.88582 7.42252C4.88582 7.32515 4.83092 7.24332 4.74184 7.20603C4.65276 7.16874 4.5554 7.18946 4.486 7.25679L3.60971 8.11857C3.42637 8.29984 3.33522 8.52357 3.33419 8.78149L3.33626 8.78356Z" fill="#252525"/>
</svg>
