<svg width="16" height="23" viewBox="0 0 16 23" fill="none" xmlns="http://www.w3.org/2000/svg">
<g clip-path="url(#clip0)">
<path fill-rule="evenodd" clip-rule="evenodd" d="M4.8418 10.3737C5.99023 11.6423 4.84326 13.1496 3.31104 13.1496C2.1626 13.1496 2.06738 13.1496 0.662598 13.1496C1.45654 12.8581 1.6748 12.322 1.86084 11.7463C2.01172 11.279 2.14209 10.7839 2.54346 10.3722C3.07812 9.82586 4.12695 9.5827 4.8418 10.3722V10.3737Z" fill="#252525"/>
<path fill-rule="evenodd" clip-rule="evenodd" d="M13.1577 2.10876C13.1284 2.07947 13.0991 2.05017 13.0698 2.02087C12.9263 1.87732 12.7022 1.85828 12.5366 1.97839C10.5415 3.41833 8.05274 5.37683 5.8291 7.60046C5.48486 7.9447 5.13916 8.29041 4.85498 8.6947C5.23291 8.85437 5.58447 9.099 5.8833 9.42859C6.14551 9.71863 6.34033 10.0204 6.47656 10.3265C6.88379 10.0394 7.23096 9.69519 7.57813 9.34802C9.80176 7.12439 11.7603 4.63562 13.2002 2.6405C13.3189 2.47498 13.3013 2.25232 13.1577 2.1073V2.10876ZM4.60596 9.099C4.53418 9.2323 4.46973 9.37292 4.41406 9.52234C4.7041 9.6322 4.96777 9.81531 5.18897 10.0585C5.38379 10.2723 5.5376 10.5126 5.64014 10.7704C5.79248 10.7147 5.93604 10.6488 6.07227 10.577C5.95654 10.2943 5.7793 10.0131 5.53613 9.745C5.2666 9.44763 4.94727 9.23376 4.60596 9.10046V9.099Z" fill="#252525"/>
</g>
<defs>
<clipPath id="clip0">
<rect width="15" height="22" fill="white" transform="translate(0.154297 0.0244141)"/>
</clipPath>
</defs>
</svg>
