<svg width="9" height="9" viewBox="0 0 9 9" fill="none" xmlns="http://www.w3.org/2000/svg">
<g clip-path="url(#clip0)">
<path fill-rule="evenodd" clip-rule="evenodd" d="M5.35959 1.25432L4.56418 2.04973C4.15812 2.45579 4.05265 3.05256 4.24953 3.55706L5.95636 1.85022C6.17433 1.63225 6.53381 1.63225 6.75177 1.85022L7.14992 2.24836C7.36789 2.46633 7.36789 2.82581 7.14992 3.04377L5.44308 4.75061C5.94758 4.94748 6.54435 4.8429 6.95041 4.43596L7.74582 3.64055C8.29338 3.09299 8.29338 2.19915 7.74582 1.65159L7.34767 1.25344C6.80011 0.705884 5.90627 0.705884 5.35871 1.25344L5.35959 1.25432Z" fill="#A6A6A6"/>
<path fill-rule="evenodd" clip-rule="evenodd" d="M2.97356 5.23215L5.1726 3.03313C5.38529 2.82043 5.73774 2.82571 5.95658 3.04456C6.17543 3.2634 6.18071 3.61584 5.96801 3.82854L3.76897 6.02756C3.55628 6.24026 3.20383 6.23499 2.98499 6.01614C2.76614 5.79729 2.76086 5.44485 2.97356 5.23215Z" fill="#A6A6A6"/>
<path fill-rule="evenodd" clip-rule="evenodd" d="M1.97952 4.63527L1.18411 5.43068C0.636547 5.97823 0.636547 6.87208 1.18411 7.41964L1.58225 7.81778C2.12982 8.36534 3.02367 8.36534 3.57123 7.81778L4.36664 7.02237C4.7727 6.61632 4.87817 6.01954 4.68129 5.51505L2.97445 7.22189C2.75648 7.43986 2.397 7.43986 2.17903 7.22189L1.78089 6.82374C1.56292 6.60577 1.56292 6.2463 1.78089 6.02833L3.48773 4.3215C2.98324 4.12462 2.38646 4.22921 1.9804 4.63614L1.97952 4.63527Z" fill="#A6A6A6"/>
</g>
<defs>
<clipPath id="clip0">
<rect width="9" height="9" fill="white" transform="translate(0.000976562)"/>
</clipPath>
</defs>
</svg>
