<svg width="8" height="8" viewBox="0 0 8 8" fill="none" xmlns="http://www.w3.org/2000/svg">
<path fill-rule="evenodd" clip-rule="evenodd" d="M0.341553 6.08667L2.32983 4.09839L0.341553 2.11011C0.219482 1.98804 0.219482 1.7898 0.341553 1.66773L1.66772 0.341553C1.78979 0.219482 1.98804 0.219482 2.11011 0.341553L4.09839 2.32984L6.08667 0.341553C6.20874 0.219482 6.40698 0.219482 6.52905 0.341553L7.85522 1.66773C7.97729 1.7898 7.97729 1.98804 7.85522 2.11011L5.86694 4.09839L7.85522 6.08667C7.97729 6.20874 7.97729 6.40699 7.85522 6.52906L6.52905 7.85523C6.40698 7.9773 6.20874 7.9773 6.08667 7.85523L4.09839 5.86695L2.11011 7.85523C1.98804 7.9773 1.78979 7.9773 1.66772 7.85523L0.341553 6.52906C0.219482 6.40699 0.219482 6.20874 0.341553 6.08667Z" fill="#252525"/>
</svg>
