<svg width="35" height="15" viewBox="0 0 35 15" fill="none" xmlns="http://www.w3.org/2000/svg">
<rect x="0.000976562" width="35" height="15" rx="3" fill="#CCCCCC"/>
<path d="M12.3994 7.08984C12.3994 8.03255 12.1377 8.75391 11.6143 9.25391C11.0908 9.7513 10.3369 10 9.35254 10H7.75488V4.28906H9.52051C10.4294 4.28906 11.1364 4.53385 11.6416 5.02344C12.1468 5.51302 12.3994 6.20182 12.3994 7.08984ZM11.415 7.12109C11.415 5.75391 10.7757 5.07031 9.49707 5.07031H8.68848V9.21484H9.35254C10.7275 9.21484 11.415 8.51693 11.415 7.12109ZM15.7236 5.60156C15.9085 5.60156 16.0609 5.61458 16.1807 5.64062L16.0908 6.49609C15.9606 6.46484 15.8252 6.44922 15.6846 6.44922C15.3174 6.44922 15.0192 6.56901 14.79 6.80859C14.5635 7.04818 14.4502 7.35938 14.4502 7.74219V10H13.5322V5.67969H14.251L14.3721 6.44141H14.4189C14.5622 6.18359 14.7484 5.97917 14.9775 5.82812C15.2093 5.67708 15.458 5.60156 15.7236 5.60156ZM19.6885 10L19.5049 9.39844H19.4736C19.2653 9.66146 19.0557 9.84115 18.8447 9.9375C18.6338 10.0312 18.363 10.0781 18.0322 10.0781C17.6077 10.0781 17.2757 9.96354 17.0361 9.73438C16.7992 9.50521 16.6807 9.18099 16.6807 8.76172C16.6807 8.31641 16.846 7.98047 17.1768 7.75391C17.5075 7.52734 18.0114 7.40365 18.6885 7.38281L19.4346 7.35938V7.12891C19.4346 6.85286 19.3695 6.64714 19.2393 6.51172C19.1117 6.3737 18.9124 6.30469 18.6416 6.30469C18.4202 6.30469 18.208 6.33724 18.0049 6.40234C17.8018 6.46745 17.6064 6.54427 17.4189 6.63281L17.1221 5.97656C17.3564 5.85417 17.613 5.76172 17.8916 5.69922C18.1702 5.63411 18.4333 5.60156 18.6807 5.60156C19.2301 5.60156 19.6442 5.72135 19.9229 5.96094C20.2041 6.20052 20.3447 6.57682 20.3447 7.08984V10H19.6885ZM18.3213 9.375C18.6546 9.375 18.9215 9.28255 19.1221 9.09766C19.3252 8.91016 19.4268 8.64844 19.4268 8.3125V7.9375L18.8721 7.96094C18.4398 7.97656 18.1247 8.04948 17.9268 8.17969C17.7314 8.30729 17.6338 8.50391 17.6338 8.76953C17.6338 8.96224 17.6911 9.11198 17.8057 9.21875C17.9202 9.32292 18.0921 9.375 18.3213 9.375ZM23.7939 6.375H22.7393V10H21.8174V6.375H21.1064V5.94531L21.8174 5.66406V5.38281C21.8174 4.8724 21.9372 4.49479 22.1768 4.25C22.4163 4.0026 22.7822 3.87891 23.2744 3.87891C23.5973 3.87891 23.915 3.93229 24.2275 4.03906L23.9854 4.73438C23.7588 4.66146 23.5426 4.625 23.3369 4.625C23.1286 4.625 22.9762 4.6901 22.8799 4.82031C22.7861 4.94792 22.7393 5.14062 22.7393 5.39844V5.67969H23.7939V6.375ZM26.1416 9.33594C26.3656 9.33594 26.5895 9.30078 26.8135 9.23047V9.92188C26.7119 9.96615 26.5804 10.0026 26.4189 10.0312C26.2601 10.0625 26.0947 10.0781 25.9229 10.0781C25.0531 10.0781 24.6182 9.61979 24.6182 8.70312V6.375H24.0283V5.96875L24.6611 5.63281L24.9736 4.71875H25.54V5.67969H26.7705V6.375H25.54V8.6875C25.54 8.90885 25.5947 9.07292 25.7041 9.17969C25.8161 9.28385 25.9619 9.33594 26.1416 9.33594Z" fill="white"/>
</svg>
