<svg width="15" height="15" viewBox="0 0 15 15" fill="none" xmlns="http://www.w3.org/2000/svg">
<path fill-rule="evenodd" clip-rule="evenodd" d="M7.5 11.7188H11.25C11.5078 11.7188 11.7188 11.9297 11.7188 12.1875C11.7188 12.4453 11.5078 12.6562 11.25 12.6562H7.5C7.24219 12.6562 7.03125 12.4453 7.03125 12.1875C7.03125 11.9297 7.24219 11.7188 7.5 11.7188ZM6.5625 10.3125H7.5C8.19141 10.3125 8.79785 10.6904 9.12305 11.25H6.5625C6.04541 11.25 5.625 11.6704 5.625 12.1875C5.625 12.7046 6.04541 13.125 6.5625 13.125H9.12305C8.79785 13.6846 8.19141 14.0625 7.5 14.0625H6.5625C5.52979 14.0625 4.6875 13.2202 4.6875 12.1875C4.6875 11.1548 5.52979 10.3125 6.5625 10.3125ZM9.62695 13.125C9.95215 13.6846 10.5586 14.0625 11.25 14.0625H12.1875C13.2202 14.0625 14.0625 13.2202 14.0625 12.1875C14.0625 11.1548 13.2202 10.3125 12.1875 10.3125H11.25C10.5586 10.3125 9.95215 10.6904 9.62695 11.25H12.1875C12.7046 11.25 13.125 11.6719 13.125 12.1875C13.125 12.7031 12.7031 13.125 12.1875 13.125H9.62695Z" fill="#252525"/>
<path fill-rule="evenodd" clip-rule="evenodd" d="M7.03174 0.9375C10.3979 0.9375 13.1255 3.66504 13.1255 7.03125C13.1255 8.05078 12.875 9.01172 12.4326 9.85693C12.3521 9.84814 12.2715 9.84375 12.188 9.84375H11.353C11.8804 9.03516 12.188 8.06836 12.188 7.03125C12.188 6.74707 12.1646 6.46875 12.1206 6.19629C12.0708 6.14209 12.021 6.1084 11.9814 6.12158C11.8936 6.14941 11.8877 6.42773 11.7925 6.5874C11.7148 6.71777 11.5405 6.73242 11.5127 6.77051C11.3252 7.02539 11.9507 7.229 11.6782 7.58203C11.561 7.73291 11.208 8.07422 11.1128 8.51514C10.9121 9.45264 11.0439 8.88721 10.7422 9.63721C10.7217 9.68701 10.6953 9.79834 10.666 9.91699C10.1519 10.0488 9.69482 10.3535 9.37256 10.7827C9.27295 10.6494 9.16016 10.5278 9.03564 10.4209C9.03418 10.4092 9.03125 10.3975 9.02979 10.3872C8.99316 10.1763 8.77344 9.9082 8.79541 9.74121C8.8291 9.48193 8.85107 9.39844 8.85693 9.09961C8.85693 9.08643 8.67822 8.36572 8.64893 8.30273C8.51562 8.01855 8.29736 7.89111 7.98828 7.99805C7.74805 8.08008 7.54736 7.95996 7.35693 7.88379C6.97754 7.72998 6.80176 7.23486 6.72119 6.8291C6.72119 6.82764 6.77979 6.19189 6.78125 6.1582C6.79297 5.98975 6.87061 5.83301 6.96143 5.7041C7.64258 4.72705 7.48438 5.146 8.36328 4.83105C8.5083 4.77832 8.72363 4.76953 8.80273 4.7959C9.19385 4.93213 9.1748 5.33496 9.5791 5.40381C9.62451 5.41113 9.83398 5.28369 9.88232 5.29102C10.1299 5.33496 10.3643 5.56787 10.5811 5.45801C10.71 5.39209 10.7773 5.14893 10.6616 5.06104C10.5503 4.97607 10.3789 5.03906 10.2573 4.95264C10.0771 4.8252 9.92773 5.00391 9.77832 4.83105C9.71094 4.75342 9.59082 4.51025 9.50146 4.38281C9.40625 4.24658 9.12061 4.30225 9.16748 4.36377C9.31396 4.56152 9.53076 4.59229 9.55859 4.70215C9.58936 4.8208 9.28027 4.979 9.36377 4.76367C9.40771 4.64941 9.18652 4.5791 8.93018 4.44434C8.79541 4.37402 8.66504 4.19385 8.46289 4.29053C8.36328 4.33887 8.17432 4.57471 8.09961 4.6875C7.9707 4.87939 7.67773 4.82812 7.48145 4.73145C7.28809 4.6377 7.28369 4.16748 7.53564 3.96387C7.77734 3.76758 7.9751 3.8877 8.20947 3.82178C8.30469 3.79541 8.35303 3.69141 8.49658 3.59473C8.6665 3.48047 8.39111 3.30029 8.4834 3.11572C8.55811 2.96484 8.80713 2.93408 8.93896 2.86963C9.06201 2.80811 9.20264 2.70557 9.3374 2.78613C9.52344 2.896 9.72559 2.90771 9.91016 3.02197C10.1431 3.16553 10.3218 3.25635 10.5371 3.25049C9.70801 2.48145 8.62695 1.98193 7.43164 1.89111C7.60742 2.05078 7.82275 2.33789 7.74951 2.50049C7.66602 2.68945 7.54297 2.92529 7.17529 3.06006C6.9043 3.16113 6.54688 3.16553 6.27441 3.28271C5.99316 3.4043 5.71191 3.39551 5.55078 3.43359C5.2959 3.49365 5.5625 2.59717 5.48779 2.49609C5.37793 2.34814 4.70117 2.47559 4.64258 2.62793C4.50635 2.98682 4.82422 3.29004 4.80957 3.36035C4.78174 3.49658 4.78467 4.03711 4.65576 4.17773C4.45947 4.39014 3.95996 4.58203 3.89404 4.59082C3.57031 4.63623 3.49561 4.96729 3.25391 5.16064C3.15137 5.24121 2.63867 5.78174 2.55664 5.94873C2.33398 6.4043 2.55078 6.69434 2.65332 6.78516C2.82764 6.94189 2.89941 6.95801 3.09277 7.01807C3.16895 7.0415 3.90283 7.41943 4.10205 7.62451C4.3042 7.83252 4.40674 8.05078 4.61035 8.17383C4.85791 8.32324 5.30762 8.49316 5.36768 8.60889C5.63867 9.1333 5.54639 9.87012 4.77295 10.3916C4.57227 10.5264 4.16211 10.749 4.26465 11.1226C4.29395 11.231 4.2998 11.3291 4.32031 11.4185L4.34521 11.4331C4.26465 11.6704 4.2207 11.9238 4.2207 12.189C4.2207 12.2769 4.2251 12.3618 4.23535 12.4468C2.27832 11.4331 0.939453 9.38965 0.939453 7.03271C0.939453 3.66797 3.66699 0.938965 7.0332 0.938965L7.03174 0.9375ZM3.83984 11.0801C3.6084 10.7944 3.3916 10.4941 3.31396 10.3052C3.20557 10.0371 3.17627 9.54932 3.0459 9.40137C2.77783 9.09375 2.53174 8.84326 2.48193 8.52979C2.43652 8.24268 2.271 7.8252 2.2417 7.59814C2.20361 7.31104 2.0835 6.99609 1.88281 6.75293C1.87842 6.84521 1.87549 6.9375 1.87549 7.03125C1.87549 8.67334 2.64307 10.1367 3.83984 11.0801Z" fill="#252525"/>
</svg>
