<svg width="12" height="17.2" xmlns="http://www.w3.org/2000/svg">

 <g>
  <title>background</title>
  <rect fill="none" id="canvas_background" height="19.2" width="14" y="-1" x="-1"/>
 </g>
 <g>
  <title>Layer 1</title>
  <path id="svg_1" stroke="white" fill="#D9544F" d="m9.61473,10.1454l0.00014,-0.0001c1.15393,-1.00792 1.88513,-2.49158 1.88513,-4.1453c0,-3.03708 -2.46292,-5.5 -5.5,-5.5c-3.03708,0 -5.5,2.46292 -5.5,5.5c0,1.65372 0.73124,3.13738 1.88513,4.1453l0.00014,0.0001c0.7744,0.676 1.31697,1.3771 1.77689,2.297l1.39063,2.7812l0.44721,0.8944l0.44721,-0.8944l1.39063,-2.7812c0.45992,-0.9199 1.00249,-1.621 1.77689,-2.297zm-3.61473,-6.6454c1.38011,0 2.5,1.11989 2.5,2.5c0,1.38011 -1.11989,2.5 -2.5,2.5c-1.38011,0 -2.5,-1.11989 -2.5,-2.5c0,-1.38011 1.11989,-2.5 2.5,-2.5z"/>
 </g>
</svg>