<svg width="5" height="4" viewBox="0 0 5 4" fill="none" xmlns="http://www.w3.org/2000/svg">
<path fill-rule="evenodd" clip-rule="evenodd" d="M0.670776 3.04334L1.66492 2.0492L0.670776 1.05505C0.609741 0.994019 0.609741 0.894898 0.670776 0.833863L1.33386 0.170776C1.3949 0.109741 1.49402 0.109741 1.55505 0.170776L2.54919 1.16492L3.54333 0.170776C3.60437 0.109741 3.70349 0.109741 3.76453 0.170776L4.42761 0.833863C4.48865 0.894898 4.48865 0.994019 4.42761 1.05505L3.43347 2.0492L4.42761 3.04334C4.48865 3.10437 4.48865 3.20349 4.42761 3.26453L3.76453 3.92761C3.70349 3.98865 3.60437 3.98865 3.54333 3.92761L2.54919 2.93347L1.55505 3.92761C1.49402 3.98865 1.3949 3.98865 1.33386 3.92761L0.670776 3.26453C0.609741 3.20349 0.609741 3.10437 0.670776 3.04334Z" fill="#252525"/>
</svg>
