<svg width="17" height="20" xmlns="http://www.w3.org/2000/svg">

 <g>
  <title>background</title>
  <rect fill="none" id="canvas_background" height="22" width="19" y="-1" x="-1"/>
 </g>
 <g>
  <title>Layer 1</title>
  <path id="svg_1" stroke="#CCCCCC" fill="white" d="m0.5,5c0,-1.38071 1.11929,-2.5 2.5,-2.5l7.0179,0l4.4821,4.55103l0,9.94897c0,1.3807 -1.1193,2.5 -2.5,2.5l-9,0c-1.38071,0 -2.5,-1.1193 -2.5,-2.5l0,-12z"/>
  <path id="svg_2" stroke="#CCCCCC" fill="white" d="m2.5,3c0,-1.38071 1.11929,-2.5 2.5,-2.5l7.0179,0l4.4821,4.55103l0,9.94897c0,1.3807 -1.1193,2.5 -2.5,2.5l-9,0c-1.38071,0 -2.5,-1.1193 -2.5,-2.5l0,-12z"/>
  <path id="svg_3" fill="black" d="m24.9043,16l-0.5737,0l0,-2.3047c0,-0.2751 0.0065,-0.4932 0.0195,-0.6543c-0.0374,0.0391 -0.0838,0.0822 -0.1392,0.1294c-0.0537,0.0472 -0.236,0.197 -0.5468,0.4492l-0.2881,-0.3637l1.0498,-0.8252l0.4785,0l0,3.5693zm3.667,-0.415c0.14,0 0.2799,-0.022 0.4199,-0.066l0,0.4322c-0.0635,0.0276 -0.1457,0.0504 -0.2466,0.0683c-0.0993,0.0196 -0.2026,0.0293 -0.31,0.0293c-0.5436,0 -0.8155,-0.2864 -0.8155,-0.8593l0,-1.4551l-0.3686,0l0,-0.2539l0.3955,-0.21l0.1953,-0.5713l0.354,0l0,0.6006l0.7691,0l0,0.4346l-0.7691,0l0,1.4453c0,0.1383 0.0342,0.2409 0.1026,0.3076c0.0699,0.0651 0.1611,0.0977 0.2734,0.0977zm3.3569,-0.94c0,0.4411 -0.1131,0.7853 -0.3393,1.0327c-0.2263,0.2474 -0.5412,0.3711 -0.9449,0.3711c-0.2522,0 -0.4752,-0.0569 -0.6689,-0.1709c-0.1937,-0.1139 -0.3426,-0.2775 -0.4468,-0.4907c-0.1041,-0.2132 -0.1562,-0.4606 -0.1562,-0.7422c0,-0.4378 0.1123,-0.7796 0.3369,-1.0254c0.2246,-0.2457 0.5412,-0.3686 0.9497,-0.3686c0.3906,0 0.6999,0.1261 0.9277,0.3784c0.2279,0.2506 0.3418,0.5892 0.3418,1.0156zm-1.9653,0c0,0.6234 0.2303,0.9351 0.6909,0.9351c0.4557,0 0.6836,-0.3117 0.6836,-0.9351c0,-0.6168 -0.2295,-0.9253 -0.6885,-0.9253c-0.2409,0 -0.4158,0.0798 -0.5249,0.2393c-0.1074,0.1595 -0.1611,0.3882 -0.1611,0.686zm5.2954,-1.394c0.1156,0 0.2108,0.0081 0.2856,0.0244l-0.0561,0.5347c-0.0814,-0.0196 -0.166,-0.0293 -0.2539,-0.0293c-0.2295,0 -0.4159,0.0748 -0.5591,0.2246c-0.1416,0.1497 -0.2124,0.3442 -0.2124,0.5835l0,1.4111l-0.5737,0l0,-2.7002l0.4492,0l0.0757,0.4761l0.0293,0c0.0895,-0.1612 0.2059,-0.2889 0.3491,-0.3833c0.1448,-0.0944 0.3003,-0.1416 0.4663,-0.1416zm1.9678,2.7978c-0.4199,0 -0.7487,-0.122 -0.9864,-0.3662c-0.236,-0.2458 -0.354,-0.5835 -0.354,-1.0132c0,-0.441 0.1099,-0.7877 0.3296,-1.04c0.2198,-0.2523 0.5217,-0.3784 0.9058,-0.3784c0.3564,0 0.638,0.1082 0.8447,0.3247c0.2067,0.2165 0.3101,0.5143 0.3101,0.8935l0,0.3101l-1.7993,0c0.0081,0.262 0.0789,0.4639 0.2124,0.6055c0.1334,0.1399 0.3214,0.2099 0.5639,0.2099c0.1595,0 0.3076,-0.0146 0.4444,-0.0439c0.1383,-0.0309 0.2864,-0.0814 0.4443,-0.1514l0,0.4663c-0.14,0.0668 -0.2816,0.114 -0.4248,0.1416c-0.1432,0.0277 -0.3068,0.0415 -0.4907,0.0415zm-0.105,-2.3633c-0.1823,0 -0.3288,0.0578 -0.4395,0.1734c-0.109,0.1155 -0.1741,0.284 -0.1953,0.5054l1.2256,0c-0.0032,-0.223 -0.057,-0.3915 -0.1611,-0.5054c-0.1042,-0.1156 -0.2474,-0.1734 -0.4297,-0.1734zm2.4219,2.3145l-1.0254,-2.7002l0.6054,0l0.5494,1.5698c0.0944,0.2637 0.1513,0.4769 0.1709,0.6397l0.0195,0c0.0146,-0.1172 0.0716,-0.3304 0.1709,-0.6397l0.5493,-1.5698l0.6104,0l-1.0303,2.7002l-0.6201,0zm2.6342,0l-0.5737,0l0,-2.7002l0.5737,0l0,2.7002zm-0.6079,-3.4155c0,-0.1026 0.0277,-0.1815 0.083,-0.2368c0.057,-0.0554 0.1376,-0.0831 0.2417,-0.0831c0.101,0 0.1791,0.0277 0.2344,0.0831c0.057,0.0553 0.0855,0.1342 0.0855,0.2368c0,0.0976 -0.0285,0.1749 -0.0855,0.2319c-0.0553,0.0553 -0.1334,0.083 -0.2344,0.083c-0.1041,0 -0.1847,-0.0277 -0.2417,-0.083c-0.0553,-0.057 -0.083,-0.1343 -0.083,-0.2319zm2.6099,3.4643c-0.4199,0 -0.7487,-0.122 -0.9863,-0.3662c-0.236,-0.2458 -0.354,-0.5835 -0.354,-1.0132c0,-0.441 0.1098,-0.7877 0.3296,-1.04c0.2197,-0.2523 0.5216,-0.3784 0.9057,-0.3784c0.3565,0 0.638,0.1082 0.8447,0.3247c0.2068,0.2165 0.3101,0.5143 0.3101,0.8935l0,0.3101l-1.7993,0c0.0081,0.262 0.0789,0.4639 0.2124,0.6055c0.1335,0.1399 0.3214,0.2099 0.564,0.2099c0.1595,0 0.3076,-0.0146 0.4443,-0.0439c0.1383,-0.0309 0.2864,-0.0814 0.4443,-0.1514l0,0.4663c-0.1399,0.0668 -0.2815,0.114 -0.4248,0.1416c-0.1432,0.0277 -0.3068,0.0415 -0.4907,0.0415zm-0.105,-2.3633c-0.1823,0 -0.3288,0.0578 -0.4394,0.1734c-0.1091,0.1155 -0.1742,0.284 -0.1953,0.5054l1.2255,0c-0.0032,-0.223 -0.0569,-0.3915 -0.1611,-0.5054c-0.1042,-0.1156 -0.2474,-0.1734 -0.4297,-0.1734zm4.021,2.3145l-0.3491,-1.2598c-0.0423,-0.1334 -0.1188,-0.4435 -0.2295,-0.9301l-0.022,0c-0.0944,0.4394 -0.1692,0.7511 -0.2246,0.935l-0.3589,1.2549l-0.6347,0l-0.7569,-2.7002l0.586,0l0.3442,1.3306c0.0781,0.3287 0.1335,0.6103 0.166,0.8447l0.0147,0c0.0162,-0.1188 0.0407,-0.2547 0.0732,-0.4077c0.0342,-0.1546 0.0635,-0.2702 0.0879,-0.3467l0.4102,-1.4209l0.6298,0l0.398,1.4209c0.0244,0.0798 0.0545,0.2018 0.0903,0.3662c0.0375,0.1644 0.0594,0.2922 0.0659,0.3833l0.0196,0c0.0244,-0.2002 0.0814,-0.4801 0.1709,-0.8398l0.3491,-1.3306l0.5762,0l-0.7618,2.7002l-0.6445,0z"/>
  <path id="svg_4" fill="black" d="m26.9346,9l-0.5684,0l-2.3408,-3.59473l-0.0234,0c0.0312,0.42188 0.0468,0.8086 0.0468,1.16016l0,2.43457l-0.4599,0l0,-4.2832l0.5625,0l2.3349,3.58008l0.0235,0c-0.0039,-0.05274 -0.0127,-0.22168 -0.0264,-0.50684c-0.0137,-0.28711 -0.0186,-0.49219 -0.0146,-0.61524l0,-2.458l0.4658,0l0,4.2832zm2.4609,0.05859c-0.4746,0 -0.8496,-0.14453 -1.125,-0.43359c-0.2734,-0.28906 -0.4101,-0.69043 -0.4101,-1.2041c0,-0.51758 0.1269,-0.92871 0.3808,-1.2334c0.2559,-0.30469 0.5986,-0.45703 1.0283,-0.45703c0.4024,0 0.7207,0.13281 0.9551,0.39844c0.2344,0.26367 0.3516,0.6123 0.3516,1.04589l0,0.30762l-2.2119,0c0.0097,0.37696 0.1045,0.66309 0.2841,0.8584c0.1817,0.19531 0.4366,0.29297 0.7647,0.29297c0.3457,0 0.6875,-0.07227 1.0254,-0.2168l0,0.4336c-0.1719,0.07421 -0.335,0.12695 -0.4893,0.1582c-0.1523,0.0332 -0.3369,0.0498 -0.5537,0.0498zm-0.1318,-2.92089c-0.2578,0 -0.4639,0.08398 -0.6182,0.25195c-0.1523,0.16797 -0.2422,0.40039 -0.2695,0.69726l1.6787,0c0,-0.30664 -0.0684,-0.54101 -0.2051,-0.70312c-0.1367,-0.16406 -0.332,-0.24609 -0.5859,-0.24609zm4.7666,2.8623l-0.5889,-1.88379c-0.0371,-0.11523 -0.1064,-0.37695 -0.208,-0.78516l-0.0234,0c-0.0782,0.3418 -0.1465,0.60547 -0.2051,0.79102l-0.6065,1.87793l-0.5625,0l-0.8759,-3.21094l0.5097,0c0.2071,0.80664 0.3643,1.4209 0.4717,1.84278c0.1094,0.42187 0.1719,0.70605 0.1875,0.85254l0.0234,0c0.0215,-0.11133 0.0557,-0.25489 0.1026,-0.43067c0.0488,-0.17773 0.0908,-0.31836 0.126,-0.42187l0.5888,-1.84278l0.5274,0l0.5742,1.84278c0.1094,0.33593 0.1836,0.61816 0.2226,0.84668l0.0235,0c0.0078,-0.07032 0.0283,-0.17872 0.0615,-0.3252c0.0352,-0.14648 0.2393,-0.93457 0.6123,-2.36426l0.5039,0l-0.8877,3.21094l-0.5771,0zm5.0713,-3.26953c0.1425,0 0.2705,0.01172 0.3838,0.03515l-0.0674,0.45118c-0.1328,-0.0293 -0.25,-0.04395 -0.3516,-0.04395c-0.2598,0 -0.4824,0.10547 -0.668,0.31641c-0.1836,0.21094 -0.2754,0.47363 -0.2754,0.78808l0,1.72266l-0.4863,0l0,-3.21094l0.4014,0l0.0557,0.59473l0.0234,0c0.1191,-0.20899 0.2627,-0.37012 0.4307,-0.4834c0.1679,-0.11328 0.3525,-0.16992 0.5537,-0.16992zm2.3408,3.32812c-0.4746,0 -0.8496,-0.14453 -1.125,-0.43359c-0.2735,-0.28906 -0.4102,-0.69043 -0.4102,-1.2041c0,-0.51758 0.127,-0.92871 0.3809,-1.2334c0.2558,-0.30469 0.5986,-0.45703 1.0283,-0.45703c0.4024,0 0.7207,0.13281 0.9551,0.39844c0.2344,0.26367 0.3515,0.6123 0.3515,1.04589l0,0.30762l-2.2119,0c0.0098,0.37696 0.1045,0.66309 0.2842,0.8584c0.1817,0.19531 0.4365,0.29297 0.7647,0.29297c0.3457,0 0.6875,-0.07227 1.0254,-0.2168l0,0.4336c-0.1719,0.07421 -0.335,0.12695 -0.4893,0.1582c-0.1523,0.0332 -0.3369,0.0498 -0.5537,0.0498zm-0.1319,-2.92089c-0.2578,0 -0.4638,0.08398 -0.6181,0.25195c-0.1524,0.16797 -0.2422,0.40039 -0.2695,0.69726l1.6787,0c0,-0.30664 -0.0684,-0.54101 -0.2051,-0.70312c-0.1367,-0.16406 -0.332,-0.24609 -0.586,-0.24609zm2.8477,2.8623l-1.2187,-3.21094l0.5214,0l0.6914,1.9043c0.1563,0.44531 0.2481,0.73437 0.2754,0.86719l0.0235,0c0.0215,-0.10352 0.0888,-0.31739 0.2021,-0.6416c0.1153,-0.32618 0.3721,-1.03614 0.7705,-2.12989l0.5215,0l-1.2187,3.21094l-0.5684,0zm2.7891,0l-0.4864,0l0,-3.21094l0.4864,0l0,3.21094zm-0.5274,-4.08105c0,-0.11133 0.0274,-0.19239 0.0821,-0.24317c0.0546,-0.05273 0.123,-0.0791 0.205,-0.0791c0.0782,0 0.1455,0.02637 0.2022,0.0791c0.0566,0.05274 0.0849,0.13379 0.0849,0.24317c0,0.10937 -0.0283,0.1914 -0.0849,0.24609c-0.0567,0.05273 -0.124,0.0791 -0.2022,0.0791c-0.082,0 -0.1504,-0.02637 -0.205,-0.0791c-0.0547,-0.05469 -0.0821,-0.13672 -0.0821,-0.24609zm2.9151,4.13964c-0.4746,0 -0.8496,-0.14453 -1.125,-0.43359c-0.2735,-0.28906 -0.4102,-0.69043 -0.4102,-1.2041c0,-0.51758 0.127,-0.92871 0.3809,-1.2334c0.2558,-0.30469 0.5986,-0.45703 1.0283,-0.45703c0.4023,0 0.7207,0.13281 0.9551,0.39844c0.2343,0.26367 0.3515,0.6123 0.3515,1.04589l0,0.30762l-2.2119,0c0.0098,0.37696 0.1045,0.66309 0.2842,0.8584c0.1816,0.19531 0.4365,0.29297 0.7646,0.29297c0.3457,0 0.6875,-0.07227 1.0254,-0.2168l0,0.4336c-0.1718,0.07421 -0.3349,0.12695 -0.4892,0.1582c-0.1524,0.0332 -0.3369,0.0498 -0.5537,0.0498zm-0.1319,-2.92089c-0.2578,0 -0.4638,0.08398 -0.6181,0.25195c-0.1524,0.16797 -0.2422,0.40039 -0.2696,0.69726l1.6787,0c0,-0.30664 -0.0683,-0.54101 -0.205,-0.70312c-0.1368,-0.16406 -0.3321,-0.24609 -0.586,-0.24609zm4.7666,2.8623l-0.5888,-1.88379c-0.0371,-0.11523 -0.1065,-0.37695 -0.208,-0.78516l-0.0235,0c-0.0781,0.3418 -0.1465,0.60547 -0.2051,0.79102l-0.6064,1.87793l-0.5625,0l-0.876,-3.21094l0.5098,0c0.207,0.80664 0.3642,1.4209 0.4717,1.84278c0.1093,0.42187 0.1718,0.70605 0.1875,0.85254l0.0234,0c0.0215,-0.11133 0.0557,-0.25489 0.1025,-0.43067c0.0489,-0.17773 0.0909,-0.31836 0.126,-0.42187l0.5889,-1.84278l0.5273,0l0.5742,1.84278c0.1094,0.33593 0.1836,0.61816 0.2227,0.84668l0.0234,0c0.0078,-0.07032 0.0284,-0.17872 0.0616,-0.3252c0.0351,-0.14648 0.2392,-0.93457 0.6123,-2.36426l0.5039,0l-0.8877,3.21094l-0.5772,0z"/>
 </g>
</svg>