<svg width="10" height="10" viewBox="0 0 10 10" fill="none" xmlns="http://www.w3.org/2000/svg">
<path fill-rule="evenodd" clip-rule="evenodd" d="M9.375 1.875V2.42383C9.375 2.68164 9.2832 2.9043 9.10059 3.08691L6.21191 5.97559C6.0293 6.1582 5.9375 6.37988 5.9375 6.63867V8.4375C5.9375 9.0625 4.0625 9.6875 4.0625 9.0625V6.63867C4.0625 6.38086 3.9707 6.1582 3.78809 5.97559L0.899414 3.08691C0.716797 2.9043 0.625 2.68262 0.625 2.42383V1.875C0.625 1.35742 2.58398 0.9375 5 0.9375C7.41602 0.9375 9.375 1.35742 9.375 1.875ZM5 1.25C7.07129 1.25 8.75 1.53027 8.75 1.875C8.75 2.21973 7.07129 2.5 5 2.5C2.92871 2.5 1.25 2.21973 1.25 1.875C1.25 1.53027 2.92871 1.25 5 1.25Z" fill="#A6A6A6"/>
</svg>
