<svg width="5" height="5" viewBox="0 0 5 5" fill="none" xmlns="http://www.w3.org/2000/svg">
<path fill-rule="evenodd" clip-rule="evenodd" d="M2.03125 0.3125H3.90625V0.625H2.03125V0.3125Z" fill="#252525"/>
<path fill-rule="evenodd" clip-rule="evenodd" d="M1.5625 0.3125H1.875V1.09375H1.25V0.625C1.25 0.452637 1.39014 0.3125 1.5625 0.3125ZM4.0625 0.3125H4.375C4.54736 0.3125 4.6875 0.453125 4.6875 0.625V3.4375C4.6875 3.60938 4.54688 3.75 4.375 3.75H3.90625V1.83301C3.99951 1.77881 4.0625 1.67773 4.0625 1.5625V0.3125Z" fill="#252525"/>
<path fill-rule="evenodd" clip-rule="evenodd" d="M1.09375 1.25H2.96875V1.5625H1.09375V1.25Z" fill="#252525"/>
<path fill-rule="evenodd" clip-rule="evenodd" d="M0.625 1.25H0.9375V2.5C0.9375 2.67236 1.07812 2.8125 1.25 2.8125H2.8125C2.98438 2.8125 3.125 2.67188 3.125 2.5V1.25H3.4375C3.60986 1.25 3.75 1.39062 3.75 1.5625V4.375C3.75 4.54688 3.60938 4.6875 3.4375 4.6875H3.125V3.59375C3.125 3.50781 3.05469 3.4375 2.96875 3.4375H1.40625C1.32031 3.4375 1.25 3.50781 1.25 3.59375V4.6875H0.625C0.453125 4.6875 0.3125 4.54736 0.3125 4.375V1.5625C0.3125 1.39014 0.452637 1.25 0.625 1.25ZM2.1875 3.59375H2.8125V4.53125H2.1875V3.59375Z" fill="#252525"/>
</svg>
