<svg width="10" height="8" viewBox="0 0 10 8" fill="none" xmlns="http://www.w3.org/2000/svg">
<path fill-rule="evenodd" clip-rule="evenodd" d="M3.54493 0.25C3.88966 0.25 4.18555 0.373047 4.42872 0.616211L4.9463 1.13379C5.18946 1.37695 5.48634 1.5 5.83009 1.5H7.50002C7.84474 1.5 8.12502 1.78125 8.12502 2.125V2.75H7.50002V2.125H5.83009C5.32032 2.125 4.86524 1.93652 4.50392 1.57617L3.98634 1.05859C3.86036 0.932617 3.72266 0.875977 3.54395 0.875977L1.24902 0.876953V6.79492C1.24902 6.89941 1.2959 6.99023 1.38184 7.05078C1.46778 7.11133 1.56836 7.125 1.66699 7.08984C1.83106 7.03125 1.96289 6.90527 2.03125 6.7334L3.3418 3.45703C3.43848 3.21484 3.66114 3.06445 3.92188 3.06445H9.07521C9.28908 3.06445 9.47268 3.16211 9.59279 3.33887C9.71291 3.51562 9.73537 3.72266 9.65529 3.9209L8.43752 6.96582C8.24416 7.45019 7.79884 7.75195 7.27736 7.75195H1.56153C1.04492 7.75195 0.624023 7.33105 0.624023 6.81445V0.876953C0.624023 0.532227 0.904298 0.251953 1.24902 0.251953C2.01367 0.251953 2.7793 0.251953 3.54395 0.251953L3.54493 0.25Z" fill="#252525"/>
</svg>
