<svg width="15" height="15" viewBox="0 0 15 15" fill="none" xmlns="http://www.w3.org/2000/svg">
<path fill-rule="evenodd" clip-rule="evenodd" d="M3.28125 5.15625H11.7188V13.2188C11.7188 13.6831 11.2969 14.0625 10.7812 14.0625H4.21875C3.70312 14.0625 3.28125 13.6831 3.28125 13.2188V5.15625ZM11.0215 5.625C11.1475 5.625 11.25 6.04688 11.25 6.5625V12.1875C11.25 12.7031 11.1475 13.125 11.0215 13.125C10.8955 13.125 10.793 12.7046 10.793 12.1875V6.5625C10.793 6.04541 10.8955 5.625 11.0215 5.625ZM7.5 5.625C8.01709 5.625 8.4375 6.04688 8.4375 6.5625V12.1875C8.4375 12.7031 8.01562 13.125 7.5 13.125C6.98438 13.125 6.5625 12.7046 6.5625 12.1875V6.5625C6.5625 6.04541 6.98438 5.625 7.5 5.625ZM5.15625 5.625C5.41406 5.625 5.625 6.04688 5.625 6.5625V12.1875C5.625 12.7031 5.41406 13.125 5.15625 13.125C4.89844 13.125 4.6875 12.7031 4.6875 12.1875V6.5625C4.6875 6.04541 4.89844 5.625 5.15625 5.625ZM3.97852 5.625C4.10449 5.625 4.20703 6.04688 4.20703 6.5625V12.1875C4.20703 12.7031 4.10449 13.125 3.97852 13.125C3.85254 13.125 3.75 12.7046 3.75 12.1875V6.5625C3.75 6.04688 3.85254 5.625 3.97852 5.625ZM9.84375 5.625C10.1016 5.625 10.3125 6.04688 10.3125 6.5625V12.1875C10.3125 12.7031 10.1016 13.125 9.84375 13.125C9.58594 13.125 9.375 12.7046 9.375 12.1875V6.5625C9.375 6.04541 9.58594 5.625 9.84375 5.625Z" fill="#252525"/>
<path fill-rule="evenodd" clip-rule="evenodd" d="M6.5625 2.82716H5.625V2.34375C5.625 2.08594 5.83594 1.875 6.09375 1.875H8.90625C9.16406 1.875 9.375 2.08594 9.375 2.34375V2.82716H8.4375V2.34375H6.5625V2.82716Z" fill="#252525"/>
<path fill-rule="evenodd" clip-rule="evenodd" d="M3.75 2.8125H11.25C11.7671 2.8125 12.1875 3.23438 12.1875 3.75V4.6875H2.8125V3.75C2.8125 3.23291 3.23291 2.8125 3.75 2.8125Z" fill="#252525"/>
</svg>
