<svg width="15" height="15" viewBox="0 0 15 15" fill="none" xmlns="http://www.w3.org/2000/svg">
<path fill-rule="evenodd" clip-rule="evenodd" d="M5.15625 12.6562V14.5312H11.7188V12.6562C11.7188 12.1392 11.2983 11.7188 10.7812 11.7188H6.09375C5.57666 11.7188 5.15625 12.1392 5.15625 12.6562Z" fill="#252525"/>
<path fill-rule="evenodd" clip-rule="evenodd" d="M11.8405 8.53125C11.4362 9.17286 11.2501 10.2583 11.2501 10.7564V11.332C11.1036 11.2793 10.9454 11.2515 10.7814 11.2515H10.3126V10.7564C10.3126 9.92432 10.6012 8.73194 11.0509 8.02734L13.0504 4.89697C13.1866 4.6831 13.1207 4.38866 12.9069 4.25243C12.7311 4.13964 12.4952 4.16308 12.3414 4.30224L11.0319 6.33838C10.9073 6.53173 10.6656 6.60644 10.4532 6.51562C10.2408 6.4248 10.1281 6.19921 10.1808 5.97509L10.9747 2.66307C11.0333 2.41698 10.8751 2.15916 10.629 2.10057C10.3829 2.04198 10.1266 2.20018 10.0665 2.44627L9.29163 5.67919C9.23743 5.90332 9.03381 6.05419 8.80237 6.03808C8.57239 6.02197 8.39075 5.84472 8.36877 5.61474L7.96448 1.36375C7.94104 1.1118 7.70813 0.918439 7.45471 0.941876C7.20276 0.965314 7.0094 1.19822 7.03284 1.45018L7.43713 5.69384C7.45911 5.92382 7.31409 6.13183 7.09143 6.19189C6.86877 6.25195 6.63879 6.14209 6.54358 5.93261L5.04797 2.62645C4.9425 2.39208 4.66272 2.28661 4.42834 2.39208C4.19397 2.49754 4.0885 2.77733 4.19397 3.01171L5.26184 5.37304L5.57532 6.06591C5.73938 6.42773 5.66614 6.83056 5.38635 7.11328C5.10657 7.39453 4.70374 7.4707 4.34045 7.30957L3.96838 7.18799C3.48206 7.0415 2.61633 6.93017 2.42883 7.56445C3.2301 7.70068 3.94348 8.02149 4.52502 8.59717C4.74622 8.81543 4.93372 9.06006 5.1095 9.31641C5.36145 9.68409 5.47717 9.7837 5.83313 10.0547C5.99573 10.1792 6.14807 10.2979 6.28137 10.4561C6.47766 10.6904 6.55969 10.9483 6.55969 11.2515H6.09094C5.92688 11.2515 5.76868 11.2793 5.62219 11.332V11.2515C5.62219 11.168 5.61487 11.1196 5.56213 11.0566C5.4845 10.9629 5.36145 10.8721 5.26477 10.7988C4.80774 10.4502 4.65979 10.3154 4.33752 9.84522C4.19543 9.63868 4.04456 9.43799 3.86731 9.26221C3.42346 8.82276 2.88293 8.58985 2.27356 8.48731C1.71545 8.39209 1.37122 7.83838 1.53088 7.29639C1.88245 6.11132 3.17151 5.96777 4.23938 6.28857L4.6012 6.39697L4.72131 6.4497L3.33997 3.3955C3.02063 2.68944 3.33704 1.85448 4.04309 1.53514C4.74915 1.21727 5.58264 1.53221 5.90198 2.23827L6.23596 2.97801L6.09827 1.53807C6.02502 0.769024 6.59631 0.0790811 7.36389 0.00730357C8.13293 -0.0659388 8.82141 0.505352 8.89465 1.27293L9.03235 2.72167L9.151 2.22655C9.33118 1.47655 10.0914 1.00779 10.8414 1.18651C11.5929 1.36522 12.0616 2.1284 11.8829 2.8784L11.7101 3.60204C12.1671 3.18895 12.8644 3.11278 13.4078 3.45848C14.0597 3.87304 14.2531 4.74755 13.837 5.39794L11.8375 8.52832L11.8405 8.53125Z" fill="#252525"/>
</svg>
