<svg width="15" height="15" viewBox="0 0 15 15" fill="none" xmlns="http://www.w3.org/2000/svg">
<path fill-rule="evenodd" clip-rule="evenodd" d="M8.93086 2.09021L7.60517 3.41589C6.92841 4.09265 6.75263 5.08728 7.08076 5.9281L9.92548 3.08337C10.2888 2.72009 10.8879 2.72009 11.2512 3.08337L11.9147 3.74695C12.278 4.11023 12.278 4.70935 11.9147 5.07263L9.07002 7.91736C9.91084 8.24548 10.9055 8.07117 11.5822 7.39294L12.9079 6.06726C13.8205 5.15466 13.8205 3.66492 12.9079 2.75232L12.2443 2.08875C11.3317 1.17615 9.84199 1.17615 8.92939 2.08875L8.93086 2.09021Z" fill="#252525"/>
<path fill-rule="evenodd" clip-rule="evenodd" d="M4.95414 8.72025L8.6192 5.05522C8.9737 4.70072 9.5611 4.70951 9.92585 5.07426C10.2906 5.439 10.2994 6.02641 9.94489 6.3809L6.27983 10.0459C5.92534 10.4004 5.33793 10.3916 4.97319 10.0269C4.60844 9.66215 4.59965 9.07475 4.95414 8.72025Z" fill="#252525"/>
<path fill-rule="evenodd" clip-rule="evenodd" d="M3.29725 7.7256L1.97156 9.05129C1.05896 9.96389 1.05896 11.4536 1.97156 12.3662L2.63514 13.0298C3.54774 13.9424 5.03749 13.9424 5.95009 13.0298L7.27578 11.7041C7.95254 11.0274 8.12833 10.0327 7.8002 9.19191L4.95546 12.0366C4.59218 12.3999 3.99305 12.3999 3.62977 12.0366L2.96619 11.3731C2.60291 11.0098 2.60291 10.4107 2.96619 10.0474L5.81093 7.20266C4.97011 6.87453 3.97548 7.04885 3.29872 7.72707L3.29725 7.7256Z" fill="#252525"/>
</svg>
