<svg width="15" height="15" viewBox="0 0 15 15" fill="none" xmlns="http://www.w3.org/2000/svg">
<path fill-rule="evenodd" clip-rule="evenodd" d="M8.76868 9.98157L9.9801 8.77014C10.1632 8.58704 10.4606 8.58704 10.6437 8.77014L14.1989 12.3253C14.382 12.5084 14.382 12.8058 14.1989 12.9889L12.9874 14.2003C12.8043 14.3834 12.507 14.3834 12.3239 14.2003L8.76868 10.6451C8.58557 10.462 8.58557 10.1647 8.76868 9.98157Z" fill="#252525"/>
<path fill-rule="evenodd" clip-rule="evenodd" d="M8.90918 7.97166L9.5127 8.57517L8.5752 9.51267L7.97168 8.90915C7.18945 9.49655 6.21826 9.84372 5.16504 9.84372C2.58105 9.84372 0.486328 7.749 0.486328 5.16502C0.486328 2.58105 2.58105 0.486328 5.16504 0.486328C7.74902 0.486328 9.84375 2.58105 9.84375 5.16502C9.84375 6.21824 9.49658 7.18943 8.90918 7.97166ZM5.16504 1.42236C7.23193 1.42236 8.90771 3.09814 8.90771 5.16502C8.90771 7.23191 7.23193 8.90769 5.16504 8.90769C3.09814 8.90769 1.42236 7.23191 1.42236 5.16502C1.42236 3.09814 3.09814 1.42236 5.16504 1.42236Z" fill="#252525"/>
</svg>
