<svg width="15" height="15" viewBox="0 0 15 15" fill="none" xmlns="http://www.w3.org/2000/svg">
<path fill-rule="evenodd" clip-rule="evenodd" d="M7.39453 9.00714C5.38477 8.2044 4.65674 6.97833 2.34375 8.90606V9.80987L2.51221 9.87432C4.40772 10.6038 5.88135 10.2274 7.39453 9.00714Z" fill="#252525"/>
<path fill-rule="evenodd" clip-rule="evenodd" d="M2.34375 10.3127C8.4375 12.6564 9.84375 3.75017 12.6562 7.96892V11.7189H2.34375V10.3127Z" fill="#252525"/>
<path fill-rule="evenodd" clip-rule="evenodd" d="M2.34375 3.28125H12.6562V7.18945C12.249 6.71631 11.729 6.33398 11.0786 6.34863C10.3755 6.36475 9.75586 6.84814 9.25488 7.29639C8.75977 7.74023 8.2998 8.21631 7.80469 8.65869C7.44727 8.52979 7.1001 8.37158 6.73828 8.18994C6.1626 7.89844 5.56348 7.54834 4.91895 7.44141C3.94629 7.28174 3.09082 7.73145 2.34375 8.3042V3.27979V3.28125ZM6.5625 3.75C7.59814 3.75 8.4375 4.58936 8.4375 5.625C8.4375 6.66064 7.59814 7.5 6.5625 7.5C5.52686 7.5 4.6875 6.66064 4.6875 5.625C4.6875 4.58936 5.52686 3.75 6.5625 3.75Z" fill="#252525"/>
<path fill-rule="evenodd" clip-rule="evenodd" d="M0.9375 1.875H14.0625V13.125H0.9375V1.875ZM1.875 2.8125H13.125V12.1875H1.875V2.8125Z" fill="#252525"/>
</svg>
