<svg width="15" height="15" viewBox="0 0 15 15" fill="none" xmlns="http://www.w3.org/2000/svg">
<rect width="15" height="15" rx="3" fill="#F5F5F5"/>
<path fill-rule="evenodd" clip-rule="evenodd" d="M8.90754 4.18688L10.9124 6.32008C11.0292 6.44433 11.0292 6.64612 10.9124 6.77038L8.90754 8.90358C8.79076 9.02783 8.64969 9.08946 8.48433 9.08946H7.40155C7.26796 9.08946 7.20163 8.91849 7.29599 8.81809L8.83467 7.18091H5.79373C5.46488 7.18091 5.19582 7.4672 5.19582 7.8171V9.09145C5.19582 9.44135 5.46488 9.72763 5.79373 9.72763L6.6906 9.72962C6.85503 9.72962 6.98956 9.87276 6.98956 10.0477V10.6799C6.98956 10.8549 6.85503 10.998 6.6906 10.998L5.79373 11C4.80531 11 4 10.1431 4 9.09145V7.8171C4 6.76541 4.80531 5.90855 5.79373 5.90855C6.80738 5.90855 7.82103 5.90855 8.83467 5.90855L7.29599 4.27137C7.20163 4.17097 7.26796 4 7.40155 4H8.48433C8.64876 4 8.79076 4.06262 8.90754 4.18588V4.18688Z" fill="#CCCCCC"/>
</svg>
