<svg width="7" height="7" viewBox="0 0 7 7" fill="none" xmlns="http://www.w3.org/2000/svg">
<path fill-rule="evenodd" clip-rule="evenodd" d="M0.939087 4.96067L2.33088 3.56887L0.939087 2.17708C0.853638 2.09163 0.853638 1.95286 0.939087 1.86741L1.86741 0.939087C1.95286 0.853638 2.09163 0.853638 2.17708 0.939087L3.56887 2.33088L4.96067 0.939087C5.04612 0.853638 5.18489 0.853638 5.27034 0.939087L6.19866 1.86741C6.28411 1.95286 6.28411 2.09163 6.19866 2.17708L4.80686 3.56887L6.19866 4.96067C6.28411 5.04612 6.28411 5.18489 6.19866 5.27034L5.27034 6.19866C5.18489 6.28411 5.04612 6.28411 4.96067 6.19866L3.56887 4.80686L2.17708 6.19866C2.09163 6.28411 1.95286 6.28411 1.86741 6.19866L0.939087 5.27034C0.853638 5.18489 0.853638 5.04612 0.939087 4.96067Z" fill="#CCCCCC"/>
</svg>
