<svg width="15" height="15" viewBox="0 0 15 15" fill="none" xmlns="http://www.w3.org/2000/svg">
<path fill-rule="evenodd" clip-rule="evenodd" d="M7.03125 0.9375H7.96875V1.89404C10.7007 2.11963 12.8804 4.29785 13.106 7.03125H14.0625V7.96875H13.106C12.8804 10.7007 10.7021 12.8804 7.96875 13.106V14.0625H7.03125V13.106C4.29932 12.8804 2.11963 10.7021 1.89404 7.96875H0.9375V7.03125H1.89404C2.11963 4.29932 4.29785 2.11963 7.03125 1.89404V0.9375ZM7.96875 2.83594V4.72705C9.14648 4.9248 10.0752 5.85352 10.2729 7.03125H12.1641C11.9443 4.81641 10.1836 3.05566 7.96875 2.83594ZM12.1641 7.96875H10.2729C10.0752 9.14648 9.14648 10.0752 7.96875 10.2729V12.1641C10.1836 11.9443 11.9443 10.1836 12.1641 7.96875ZM7.03125 12.1641V10.2729C5.85352 10.0752 4.9248 9.14648 4.72705 7.96875H2.83594C3.05566 10.1836 4.81641 11.9443 7.03125 12.1641ZM2.83594 7.03125H4.72705C4.9248 5.85352 5.85352 4.9248 7.03125 4.72705V2.83594C4.81641 3.05566 3.05566 4.81641 2.83594 7.03125ZM7.5 5.625C8.53564 5.625 9.375 6.46436 9.375 7.5C9.375 8.53564 8.53564 9.375 7.5 9.375C6.46436 9.375 5.625 8.53564 5.625 7.5C5.625 6.46436 6.46436 5.625 7.5 5.625Z" fill="#252525"/>
</svg>
