<svg width="15" height="15" viewBox="0 0 15 15" fill="none" xmlns="http://www.w3.org/2000/svg">
<path fill-rule="evenodd" clip-rule="evenodd" d="M8.71436 8.55175L10.9204 10.7578C11.1021 10.9394 11.4009 10.9394 11.584 10.7578L13.79 8.55175C13.9731 8.36865 14.064 8.14746 14.064 7.88818V6.19043C14.064 5.98095 13.812 5.87695 13.6641 6.0249L12.189 7.5C12.189 4.39306 9.6709 1.875 6.56396 1.875C3.45703 1.875 0.938965 4.39306 0.938965 7.5C0.938965 10.6069 3.45703 13.125 6.56396 13.125C7.46777 13.125 8.32324 12.9111 9.08057 12.5317L8.24121 10.8545C7.73584 11.1079 7.16748 11.25 6.56396 11.25C4.49268 11.25 2.81396 9.57128 2.81396 7.5C2.81396 5.42871 4.49268 3.75 6.56396 3.75C8.63525 3.75 10.314 5.42871 10.314 7.5L8.83887 6.0249C8.69092 5.87695 8.43896 5.98095 8.43896 6.19043V7.88818C8.43896 8.14599 8.53125 8.36865 8.71289 8.55175H8.71436Z" fill="#252525"/>
</svg>
