<svg width="15" height="15" viewBox="0 0 15 15" fill="none" xmlns="http://www.w3.org/2000/svg">
<path fill-rule="evenodd" clip-rule="evenodd" d="M1.875 1.875H2.8125V2.8125H1.875V1.875ZM12.1875 1.875H13.125V2.8125H12.1875V1.875ZM12.1875 12.1875H13.125V13.125H12.1875V12.1875ZM9.375 13.125H11.25V12.1875H9.375V13.125ZM6.5625 13.125H8.4375V12.1875H6.5625V13.125ZM3.75 13.125H5.625V12.1875H3.75V13.125ZM1.875 12.1875H2.8125V13.125H1.875V12.1875ZM9.375 2.8125H11.25V1.875H9.375V2.8125ZM6.5625 2.8125H8.4375V1.875H6.5625V2.8125ZM12.1875 6.5625H13.125V8.4375H12.1875V6.5625ZM12.1875 3.75H13.125V5.625H12.1875V3.75ZM12.1875 9.375H13.125V11.25H12.1875V9.375ZM1.875 6.5625H2.8125V8.4375H1.875V6.5625ZM3.75 2.8125H5.625V1.875H3.75V2.8125ZM1.875 3.75H2.8125V5.625H1.875V3.75ZM1.875 9.375H2.8125V11.25H1.875V9.375Z" fill="#252525"/>
</svg>
