<svg width="15" height="22" viewBox="0 0 15 22" fill="none" xmlns="http://www.w3.org/2000/svg">
<path d="M9.38041 17H5.35643C5.20029 17 5.10437 17.1709 5.18573 17.3042L7.19772 20.5997C7.27569 20.7274 7.46115 20.7274 7.53912 20.5997L9.55111 17.3042C9.63248 17.1709 9.53656 17 9.38041 17Z" fill="#252525"/>
<path fill-rule="evenodd" clip-rule="evenodd" d="M3.28125 1.875H8.90625C9.16406 1.875 9.375 2.08594 9.375 2.34375V3.9668C9.30615 4.02832 9.24609 4.10156 9.19629 4.18506L8.4375 5.44922V2.8125H3.75V6.19775C3.42188 6.27246 3.10693 6.38525 2.8125 6.53174V2.34229C2.8125 2.08447 3.02344 1.87354 3.28125 1.87354V1.875Z" fill="#252525"/>
<path fill-rule="evenodd" clip-rule="evenodd" d="M10.4033 4.43117L13.9951 10.544C14.083 10.6934 14.083 10.8648 13.998 11.0142C13.9116 11.1636 13.7636 11.25 13.5908 11.25H8.80078C8.86962 10.9483 8.90478 10.6348 8.90478 10.3125H12.7719L9.99462 5.58693L8.38183 8.27639C8.21631 7.97609 8.01562 7.69924 7.78418 7.45021L9.59618 4.42824C9.68407 4.28176 9.83056 4.19973 10.0005 4.20119C10.1704 4.20266 10.3169 4.28615 10.4018 4.43264L10.4033 4.43117Z" fill="#252525"/>
<path fill-rule="evenodd" clip-rule="evenodd" d="M4.6875 6.5625C6.75879 6.5625 8.4375 8.24121 8.4375 10.3125C8.4375 12.3838 6.75879 14.0625 4.6875 14.0625C2.61621 14.0625 0.9375 12.3838 0.9375 10.3125C0.9375 8.24121 2.61621 6.5625 4.6875 6.5625ZM4.6875 7.5C6.24023 7.5 7.5 8.75977 7.5 10.3125C7.5 11.8652 6.24023 13.125 4.6875 13.125C3.13477 13.125 1.875 11.8652 1.875 10.3125C1.875 8.75977 3.13477 7.5 4.6875 7.5Z" fill="#252525"/>
</svg>
