<svg width="15" height="22" xmlns="http://www.w3.org/2000/svg">

 <g>
  <title>background</title>
  <rect fill="none" id="canvas_background" height="602" width="802" y="-1" x="-1"/>
 </g>
 <g>
  <title>Layer 1</title>
  <path transform="rotate(-180 7.368422508239745,18.847736358642578) " id="svg_1" fill="#252525" d="m9.38041,17l-4.02398,0c-0.15614,0 -0.25206,0.1709 -0.1707,0.3042l2.01199,3.2955c0.07797,0.1277 0.26343,0.1277 0.3414,0l2.01199,-3.2955c0.08137,-0.1333 -0.01455,-0.3042 -0.1707,-0.3042z"/>
  <path id="svg_2" fill="#252525" d="m3.28125,1.875l5.625,0c0.25781,0 0.46875,0.21094 0.46875,0.46875l0,1.62305c-0.06885,0.06152 -0.12891,0.13476 -0.17871,0.21826l-0.75879,1.26416l0,-2.63672l-4.6875,0l0,3.38525c-0.32812,0.07471 -0.64307,0.1875 -0.9375,0.33399l0,-4.18945c0,-0.25782 0.21094,-0.46875 0.46875,-0.46875l0,0.00146z" clip-rule="evenodd" fill-rule="evenodd"/>
  <path id="svg_3" fill="#252525" d="m10.4033,4.43117l3.5918,6.11283c0.0879,0.1494 0.0879,0.3208 0.0029,0.4702c-0.0864,0.1494 -0.2344,0.2358 -0.4072,0.2358l-4.79002,0c0.06884,-0.3017 0.104,-0.6152 0.104,-0.9375l3.86712,0l-2.77728,-4.72557l-1.61279,2.68946c-0.16552,-0.3003 -0.36621,-0.57715 -0.59765,-0.82618l1.812,-3.02197c0.08789,-0.14648 0.23438,-0.22851 0.40432,-0.22705c0.1699,0.00147 0.3164,0.08496 0.4013,0.23145l0.0015,-0.00147z" clip-rule="evenodd" fill-rule="evenodd"/>
  <path id="svg_4" fill="#252525" d="m4.6875,6.5625c2.07129,0 3.75,1.67871 3.75,3.75c0,2.0713 -1.67871,3.75 -3.75,3.75c-2.07129,0 -3.75,-1.6787 -3.75,-3.75c0,-2.07129 1.67871,-3.75 3.75,-3.75zm0,0.9375c1.55273,0 2.8125,1.25977 2.8125,2.8125c0,1.5527 -1.25977,2.8125 -2.8125,2.8125c-1.55273,0 -2.8125,-1.2598 -2.8125,-2.8125c0,-1.55273 1.25977,-2.8125 2.8125,-2.8125z" clip-rule="evenodd" fill-rule="evenodd"/>
 </g>
</svg>