<svg width="10" height="10" viewBox="0 0 10 10" fill="none" xmlns="http://www.w3.org/2000/svg">
<path fill-rule="evenodd" clip-rule="evenodd" d="M6.80482 7.97597L7.81325 6.96837H4.67835C4.57059 6.96837 4.48242 6.88027 4.48242 6.7726V5.98952C4.48242 5.88185 4.57059 5.79375 4.67835 5.79375H7.81325L6.80482 4.78616C6.77604 4.7574 6.76808 4.71703 6.78339 4.67971C6.79869 4.64239 6.83359 4.61914 6.87401 4.61914H8.13776C8.24552 4.61914 8.33859 4.65768 8.41513 4.73354L9.92502 6.24219C10.0016 6.31866 10.0016 6.44285 9.92502 6.51932L8.41513 8.02797C8.33859 8.10444 8.24614 8.14237 8.13776 8.14237H6.87401C6.83359 8.14237 6.79869 8.11912 6.78339 8.0818C6.76808 8.04448 6.77604 8.00349 6.80482 7.97535V7.97597Z" fill="#252525"/>
<path fill-rule="evenodd" clip-rule="evenodd" d="M3.19518 5.17909L2.18675 4.17149H5.32165C5.42941 4.17149 5.51758 4.0834 5.51758 3.97572V3.19265C5.51758 3.08497 5.42941 2.99688 5.32165 2.99688H2.18675L3.19518 1.98928C3.22396 1.96053 3.23192 1.92015 3.21661 1.88283C3.20131 1.84551 3.16641 1.82227 3.12599 1.82227H1.86224C1.75448 1.82227 1.66141 1.86081 1.58487 1.93667L0.0749798 3.44531C-0.00155544 3.52178 -0.00155544 3.64597 0.0749798 3.72245L1.58487 5.23109C1.66141 5.30756 1.75386 5.34549 1.86224 5.34549H3.12599C3.16641 5.34549 3.20131 5.32225 3.21661 5.28493C3.23192 5.24761 3.22396 5.20662 3.19518 5.17848V5.17909Z" fill="#252525"/>
</svg>
