<svg width="15" height="15" viewBox="0 0 15 15" fill="none" xmlns="http://www.w3.org/2000/svg">
<path fill-rule="evenodd" clip-rule="evenodd" d="M7.03125 4.67285H7.96875V12.2021H7.03125V4.67285Z" fill="#252525"/>
<path fill-rule="evenodd" clip-rule="evenodd" d="M6 6L6 7L3 7L3 6L6 6Z" fill="#252525"/>
<path fill-rule="evenodd" clip-rule="evenodd" d="M6 8L6 9L3 9L3 8L6 8Z" fill="#252525"/>
<path fill-rule="evenodd" clip-rule="evenodd" d="M6 10L6 11L3 11L3 10L6 10Z" fill="#252525"/>
<path fill-rule="evenodd" clip-rule="evenodd" d="M1.875 1.875H13.125C13.6406 1.875 14.0625 2.29688 14.0625 2.8125V12.6562C14.0625 12.9141 13.8516 13.125 13.5938 13.125H1.40625C1.14844 13.125 0.9375 12.9141 0.9375 12.6562V2.8125C0.9375 2.29541 1.35938 1.875 1.875 1.875ZM1.875 4.6875H13.125V12.1875H1.875V4.6875Z" fill="#252525"/>
</svg>
