<svg width="15" height="15" viewBox="0 0 15 15" fill="none" xmlns="http://www.w3.org/2000/svg">
<path fill-rule="evenodd" clip-rule="evenodd" d="M10.2072 11.9639L11.7199 10.4526H7.01753C6.85589 10.4526 6.72363 10.3204 6.72363 10.1589V8.98428C6.72363 8.82277 6.85589 8.69063 7.01753 8.69063H11.7199L10.2072 7.17923C10.1641 7.1361 10.1521 7.07554 10.1751 7.01956C10.198 6.96358 10.2504 6.92871 10.311 6.92871H12.2066C12.3683 6.92871 12.5079 6.98652 12.6227 7.10031L14.8875 9.36328C15.0023 9.47799 15.0023 9.66427 14.8875 9.77898L12.6227 12.0419C12.5079 12.1567 12.3692 12.2136 12.2066 12.2136H10.311C10.2504 12.2136 10.198 12.1787 10.1751 12.1227C10.1521 12.0667 10.1641 12.0052 10.2072 11.963V11.9639Z" fill="#252525"/>
<path fill-rule="evenodd" clip-rule="evenodd" d="M4.79277 7.76863L3.28012 6.25724H7.98247C8.14411 6.25724 8.27637 6.12509 8.27637 5.96358V4.78897C8.27637 4.62746 8.14411 4.49532 7.98247 4.49532H3.28012L4.79277 2.98392C4.83594 2.94079 4.84788 2.88023 4.82492 2.82425C4.80196 2.76827 4.74961 2.7334 4.68899 2.7334H2.79336C2.63172 2.7334 2.49211 2.79121 2.37731 2.905L0.11247 5.16797C-0.00233364 5.28268 -0.00233364 5.46896 0.11247 5.58367L2.37731 7.84664C2.49211 7.96134 2.6308 8.01824 2.79336 8.01824H4.68899C4.74961 8.01824 4.80196 7.98337 4.82492 7.92739C4.84788 7.87141 4.83594 7.80993 4.79277 7.76772V7.76863Z" fill="#252525"/>
</svg>
