<svg width="15" height="15" viewBox="0 0 15 15" fill="none" xmlns="http://www.w3.org/2000/svg">
<path fill-rule="evenodd" clip-rule="evenodd" d="M14.0625 12.6562C14.0625 12.9141 13.8516 13.125 13.5938 13.125H1.40625C1.14844 13.125 0.9375 12.9141 0.9375 12.6562V2.8125C0.9375 2.29541 1.35938 1.875 1.875 1.875H13.125C13.6406 1.875 14.0625 2.29688 14.0625 2.8125V12.6562ZM1.875 4.6875H6.95361C7.09131 4.45752 7.18506 4.21875 7.5 4.21875C7.81494 4.21875 7.90869 4.45752 8.04639 4.6875H13.125V12.1875H8.04639C7.90869 12.4175 7.81494 12.6562 7.5 12.6562C7.18506 12.6562 7.09131 12.4175 6.95361 12.1875H1.875V4.6875Z" fill="#252525"/>
<path fill-rule="evenodd" clip-rule="evenodd" d="M7.5 12.1875L8.90625 9.84375H6.09375L7.5 12.1875Z" fill="#252525"/>
<path fill-rule="evenodd" clip-rule="evenodd" d="M7.5 4.6875L8.90625 7.03125H6.09375L7.5 4.6875Z" fill="#252525"/>
</svg>
