<svg width="15" height="15" viewBox="0 0 15 15" fill="none" xmlns="http://www.w3.org/2000/svg">
<path fill-rule="evenodd" clip-rule="evenodd" d="M5.31739 1.875C5.83448 1.875 6.27833 2.05957 6.64308 2.42432L7.41945 3.20068C7.78419 3.56543 8.22951 3.75 8.74513 3.75H11.25C11.7671 3.75 12.1875 4.17188 12.1875 4.6875V5.625H11.25V4.6875H8.74513C7.98048 4.6875 7.29787 4.40479 6.75587 3.86426L5.9795 3.08789C5.79054 2.89893 5.58399 2.81396 5.31593 2.81396L1.87354 2.81543V11.6924C1.87354 11.8491 1.94385 11.9854 2.07276 12.0762C2.20166 12.167 2.35254 12.1875 2.50049 12.1348C2.74659 12.0469 2.94434 11.8579 3.04688 11.6001L5.0127 6.68555C5.15772 6.32227 5.49171 6.09668 5.88282 6.09668H13.6128C13.9336 6.09668 14.209 6.24316 14.3892 6.5083C14.5694 6.77344 14.6031 7.08398 14.4829 7.38135L12.6563 11.9487C12.3662 12.6753 11.6983 13.1279 10.916 13.1279H2.34229C1.56738 13.1279 0.936035 12.4966 0.936035 11.7217V2.81543C0.936035 2.29834 1.35645 1.87793 1.87354 1.87793C3.02051 1.87793 4.16895 1.87793 5.31593 1.87793L5.31739 1.875Z" fill="#252525"/>
</svg>
