<svg width="15" height="15" viewBox="0 0 15 15" fill="none" xmlns="http://www.w3.org/2000/svg">
<path fill-rule="evenodd" clip-rule="evenodd" d="M7.5 0.955078C10.0884 0.955078 12.1875 3.05419 12.1875 5.64257V7.03123H10.3125V5.64257C10.3125 4.08984 9.05273 2.83007 7.5 2.83007C5.94727 2.83007 4.6875 4.08984 4.6875 5.64257V7.03123H2.8125V5.64257C2.8125 3.05419 4.91162 0.955078 7.5 0.955078Z" fill="#252525"/>
<path fill-rule="evenodd" clip-rule="evenodd" d="M2.8125 7.5H12.1875C12.7046 7.5 13.125 7.92041 13.125 8.4375V13.125C13.125 13.6421 12.7046 14.0625 12.1875 14.0625H2.8125C2.29541 14.0625 1.875 13.6421 1.875 13.125V8.4375C1.875 7.92041 2.29541 7.5 2.8125 7.5ZM7.5 8.90625C8.01709 8.90625 8.4375 9.32666 8.4375 9.84375C8.4375 10.1382 8.30273 10.4004 8.09033 10.5718L8.4375 12.6562H6.5625L6.90967 10.5718C6.69727 10.4004 6.5625 10.1382 6.5625 9.84375C6.5625 9.32666 6.98291 8.90625 7.5 8.90625Z" fill="#252525"/>
</svg>
