<svg width="15" height="15" viewBox="0 0 15 15" fill="none" xmlns="http://www.w3.org/2000/svg">
<path fill-rule="evenodd" clip-rule="evenodd" d="M7.5 0.9375C10.0884 0.9375 12.1875 3.03662 12.1875 5.625C12.1875 7.03418 11.5649 8.29834 10.5806 9.1582C9.80859 9.83203 9.26221 10.5381 8.80371 11.4551L7.5 14.0625L6.19629 11.4551C5.73779 10.5381 5.19141 9.83203 4.41943 9.1582C3.43506 8.29834 2.8125 7.03418 2.8125 5.625C2.8125 3.03662 4.91162 0.9375 7.5 0.9375ZM7.5 2.8125C9.05273 2.8125 10.3125 4.07227 10.3125 5.625C10.3125 7.17773 9.05273 8.4375 7.5 8.4375C5.94727 8.4375 4.6875 7.17773 4.6875 5.625C4.6875 4.07227 5.94727 2.8125 7.5 2.8125Z" fill="#252525"/>
</svg>
