<svg width="15" height="15" viewBox="0 0 15 15" fill="none" xmlns="http://www.w3.org/2000/svg">
<path fill-rule="evenodd" clip-rule="evenodd" d="M6.5625 5.625H9.375V6.5625H6.5625V5.625ZM6.5625 11.25H12.1875V12.1875H6.5625V11.25ZM6.5625 9.375H12.1875V10.3125H6.5625V9.375ZM6.5625 7.5H12.1875V8.4375H6.5625V7.5Z" fill="#252525"/>
<path fill-rule="evenodd" clip-rule="evenodd" d="M4.6875 2.8125H10.4736C10.9907 2.8125 11.4346 2.99707 11.7993 3.36182L13.5132 5.07568C13.8779 5.44043 14.0625 5.88574 14.0625 6.40137V14.0625H4.6875V2.8125ZM11.25 4.21875L12.6562 5.625H11.25V4.21875ZM5.625 3.75H9.84375C10.1016 3.75 10.3125 3.96094 10.3125 4.21875V6.5625H12.6562C12.9141 6.5625 13.125 6.77344 13.125 7.03125V13.125H5.625V3.75Z" fill="#252525"/>
<path fill-rule="evenodd" clip-rule="evenodd" d="M2.8125 3.75H4.21875V4.6875H2.8125V3.75ZM2.8125 9.375H4.21875V10.3125H2.8125V9.375ZM2.8125 7.5H4.21875V8.4375H2.8125V7.5ZM2.8125 5.625H4.21875V6.5625H2.8125V5.625Z" fill="#252525"/>
<path fill-rule="evenodd" clip-rule="evenodd" d="M0.9375 0.9375H6.72363C7.24072 0.9375 7.68456 1.12207 8.04931 1.48682L8.90624 2.34375H7.49999H6.56249C6.56249 2.08594 6.35156 1.875 6.09375 1.875H1.875V11.25H4.21875V11.7187V12.1875H0.9375V0.9375Z" fill="#252525"/>
</svg>
