<?xml version="1.0" standalone="no"?>
<!DOCTYPE svg PUBLIC "-//W3C//DTD SVG 1.1//EN" "http://www.w3.org/Graphics/SVG/1.1/DTD/svg11.dtd" >
<svg xmlns="http://www.w3.org/2000/svg" xmlns:xlink="http://www.w3.org/1999/xlink" version="1.1" viewBox="-30 -210 2570 2248">
  <g transform="matrix(1 0 0 -1 0 1638)">
   <path fill="currentColor"
d="M1997 506q68 0 118 48q49 51 49 118q0 68 -49 117q-50 50 -118 50q-26 0 -48 10t-37.5 26t-24 37t-8.5 44q0 35 -12.5 63.5t-36.5 53.5q-24 24 -53 37.5t-63 11.5l-55 -4q-36 -3 -65.5 17.5t-43.5 54.5q-15 36 -39.5 65.5t-55.5 50.5t-67 32t-75 11q-122 0 -200 -96
q-36 -45 -91 -45q-26 0 -54 14q-48 23 -94 23q-76 0 -137 -52q-59 -50 -67 -134q-5 -45 -36 -74.5t-76 -32.5q-95 -6 -158 -72q-64 -69 -64 -160q0 -99 69 -166q68 -68 165 -68h14l12 1q89 0 120 -67q23 -47 56.5 -84t74.5 -63t88.5 -40t98.5 -14q126 0 223 79q30 26 74 26
q39 0 71 -23q69 -52 152 -52q41 0 79 13.5t70.5 38t56.5 58.5t36 75q11 37 42 61.5t71 24.5q22 0 43 -7t45 -7zM2281 672q0 -117 -83 -200t-201 -83q-50 0 -88 13q-35 -121 -134 -195q-100 -76 -221 -76q-126 0 -223 76q-133 -106 -297 -106q-67 0 -129.5 17.5t-120.5 54.5
q-115 70 -174 196l-19 -1h-21q-146 0 -249 103q-102 102 -102 249q0 142 97 242q97 102 236 108q10 121 103 206q91 87 219 87q77 0 148 -37q112 141 291 141q114 0 209 -65q94 -62 137 -167l55 5q58 4 107.5 -19t91.5 -65q84 -83 84 -200q118 0 201 -83t83 -201z" />
  </g>

</svg>
