<svg width="13" height="13" viewBox="0 0 13 13" fill="none" xmlns="http://www.w3.org/2000/svg">
<path fill-rule="evenodd" clip-rule="evenodd" d="M4.36426 0.875H8.63574C8.76465 0.875 8.87598 0.92041 8.9668 1.0127L11.9873 4.0332C12.0781 4.12402 12.125 4.23535 12.125 4.36426V8.63574C12.125 8.76465 12.0796 8.87598 11.9873 8.9668L8.9668 11.9873C8.87598 12.0781 8.76465 12.125 8.63574 12.125H4.36426C4.23535 12.125 4.12402 12.0796 4.0332 11.9873L1.0127 8.9668C0.921875 8.87598 0.875 8.76465 0.875 8.63574V4.36426C0.875 4.23535 0.92041 4.12402 1.0127 4.0332L4.0332 1.0127C4.12402 0.921875 4.23535 0.875 4.36426 0.875ZM4.55908 1.8125L1.8125 4.55908V8.44238L4.55908 11.189H8.44238L11.189 8.44238V4.55908L8.44238 1.8125H4.55908Z" fill="#252525"/>
</svg>
