<svg width="15" height="14" viewBox="0 0 15 14" fill="none" xmlns="http://www.w3.org/2000/svg">
<path fill-rule="evenodd" clip-rule="evenodd" d="M8.3863 1.58496L9.39265 4.73145C9.45564 4.9292 9.63288 5.05811 9.83943 5.05664L13.128 5.05078C13.5382 5.04932 13.8868 5.30273 14.0142 5.69385C14.1417 6.08496 14.0084 6.49512 13.6773 6.73828L11.004 8.68945C10.837 8.81104 10.7711 9.01611 10.8341 9.2124L11.8565 12.3691C11.984 12.7603 11.8492 13.1719 11.5167 13.4136C11.1842 13.6553 10.752 13.6538 10.421 13.4092L7.77546 11.4624C7.60701 11.3394 7.38728 11.3394 7.22029 11.4624L4.57478 13.4092C4.24372 13.6523 3.8116 13.6538 3.47908 13.4136C3.14656 13.1719 3.01179 12.7603 3.13923 12.3691L4.16169 9.2124C4.22468 9.01611 4.15876 8.81104 3.99177 8.68945L1.31843 6.73828C0.987376 6.49658 0.854076 6.08496 0.981517 5.69385C1.10896 5.30273 1.45759 5.04932 1.86775 5.05078L5.15632 5.05664C5.36433 5.05664 5.54011 4.92773 5.6031 4.73145L6.60945 1.58496C6.73542 1.19238 7.08406 0.9375 7.49568 0.9375C7.9073 0.9375 8.25593 1.19238 8.38191 1.58496H8.3863ZM7.50007 1.89258L6.50105 5.01562C6.31355 5.60156 5.77449 5.99414 5.15925 5.99268L1.88533 5.98682L4.54841 7.93066C5.03913 8.28955 5.24421 8.92236 5.05671 9.49951L4.03865 12.6401L6.66658 10.7065C7.16462 10.3403 7.83552 10.3403 8.33357 10.7065L10.9615 12.6401L9.94343 9.49951C9.75593 8.9209 9.96101 8.28809 10.4517 7.93066L13.1148 5.98682L9.84089 5.99268C9.22566 5.99414 8.68659 5.60156 8.49909 5.01562L7.50007 1.89258Z" fill="#252525"/>
</svg>
