<svg width="13" height="14" viewBox="0 0 13 14" fill="none" xmlns="http://www.w3.org/2000/svg">
<path d="M5.56543 11L4.85254 9.01758H2.12305L1.4248 11H0.194336L2.86523 3.83203H4.13477L6.80566 11H5.56543ZM4.54492 8.01172L3.87598 6.06836C3.82715 5.93815 3.75879 5.73307 3.6709 5.45312C3.58626 5.17318 3.52767 4.9681 3.49512 4.83789C3.40723 5.23828 3.27865 5.67611 3.10938 6.15137L2.46484 8.01172H4.54492Z" fill="black"/>
<path fill-rule="evenodd" clip-rule="evenodd" d="M8.05947 5.79163L9.35111 4.5L8.05947 3.20837C7.98018 3.12907 7.98018 3.00029 8.05947 2.92099L8.92099 2.05947C9.00029 1.98018 9.12907 1.98018 9.20837 2.05947L10.5 3.35111L11.7916 2.05947C11.8709 1.98018 11.9997 1.98018 12.079 2.05947L12.9405 2.92099C13.0198 3.00029 13.0198 3.12907 12.9405 3.20837L11.6489 4.5L12.9405 5.79163C13.0198 5.87093 13.0198 5.99971 12.9405 6.07901L12.079 6.94053C11.9997 7.01982 11.8709 7.01982 11.7916 6.94053L10.5 5.64889L9.20837 6.94053C9.12907 7.01982 9.00029 7.01982 8.92099 6.94053L8.05947 6.07901C7.98018 5.99971 7.98018 5.87093 8.05947 5.79163Z" fill="#252525"/>
</svg>
