<svg width="13" height="14" viewBox="0 0 13 14" fill="none" xmlns="http://www.w3.org/2000/svg">
<path d="M5.56543 11L4.85254 9.01758H2.12305L1.4248 11H0.194336L2.86523 3.83203H4.13477L6.80566 11H5.56543ZM4.54492 8.01172L3.87598 6.06836C3.82715 5.93815 3.75879 5.73307 3.6709 5.45312C3.58626 5.17318 3.52767 4.9681 3.49512 4.83789C3.40723 5.23828 3.27865 5.67611 3.10938 6.15137L2.46484 8.01172H4.54492Z" fill="black"/>
<path fill-rule="evenodd" clip-rule="evenodd" d="M8.92332 2.13348L7.49127 3.6572C7.40786 3.74595 7.40786 3.89009 7.49127 3.97884L8.92332 5.50256C9.00674 5.59131 9.1075 5.63533 9.22561 5.63533H9.99903C10.0945 5.63533 10.1418 5.51321 10.0744 5.44149L8.97537 4.27208H11.1475C11.3824 4.27208 11.5746 4.47657 11.5746 4.7265V5.63675C11.5746 5.88668 11.3824 6.09117 11.1475 6.09117L10.5069 6.09259C10.3894 6.09259 10.2933 6.19483 10.2933 6.3198V6.77137C10.2933 6.89634 10.3894 6.99858 10.5069 6.99858L11.1475 7C11.8535 7 12.4287 6.38796 12.4287 5.63675V4.7265C12.4287 3.97529 11.8535 3.36325 11.1475 3.36325C10.4234 3.36325 9.69941 3.36325 8.97537 3.36325L10.0744 2.19384C10.1418 2.12212 10.0945 2 9.99903 2H9.22561C9.10817 2 9.00674 2.04473 8.92332 2.13277V2.13348Z" fill="#252525"/>
</svg>
