<svg width="13" height="15" viewBox="0 0 13 15" fill="none" xmlns="http://www.w3.org/2000/svg">
<path d="M5.56543 11L4.85254 9.01758H2.12305L1.4248 11H0.194336L2.86523 3.83203H4.13477L6.80566 11H5.56543ZM4.54492 8.01172L3.87598 6.06836C3.82715 5.93815 3.75879 5.73307 3.6709 5.45312C3.58626 5.17318 3.52767 4.9681 3.49512 4.83789C3.40723 5.23828 3.27865 5.67611 3.10938 6.15137L2.46484 8.01172H4.54492Z" fill="black"/>
<path fill-rule="evenodd" clip-rule="evenodd" d="M8 0L10 0L11 0L13 0V1H11V14H13V15H11H10H8V14H10L10 1H8V0Z" fill="#A6A6A6"/>
</svg>
