<svg width="13" height="13" xmlns="http://www.w3.org/2000/svg">

 <g>
  <title>background</title>
  <rect fill="none" id="canvas_background" height="15" width="15" y="-1" x="-1"/>
 </g>
 <g>
  <title>Layer 1</title>
  <path id="svg_1" fill="black" d="m8.55827,9.85409l-0.7129,-1.9824l-2.7295,0l-0.6982,1.9824l-1.23046,0l2.67086,-7.16797l1.2696,0l2.6709,7.16797l-1.2403,0zm-1.0205,-2.98828l-0.6689,-1.94336c-0.0489,-0.13021 -0.1172,-0.33529 -0.2051,-0.61524c-0.0846,-0.27994 -0.1432,-0.48502 -0.1758,-0.61523c-0.0879,0.40039 -0.2165,0.83822 -0.3857,1.31348l-0.6446,1.86035l2.0801,0z"/>
  <rect x="-5.00713" y="2.14591" id="svg_2" fill="#252525" transform="matrix(1,0,0,-1,5,15) " height="1" width="13"/>
 </g>
</svg>